%TF.GenerationSoftware,KiCad,Pcbnew,9.0.1*%
%TF.CreationDate,2025-04-07T11:22:38-03:00*%
%TF.ProjectId,Proyecto integrador 1.1,50726f79-6563-4746-9f20-696e74656772,rev?*%
%TF.SameCoordinates,Original*%
%TF.FileFunction,Soldermask,Top*%
%TF.FilePolarity,Negative*%
%FSLAX46Y46*%
G04 Gerber Fmt 4.6, Leading zero omitted, Abs format (unit mm)*
G04 Created by KiCad (PCBNEW 9.0.1) date 2025-04-07 11:22:38*
%MOMM*%
%LPD*%
G01*
G04 APERTURE LIST*
G04 Aperture macros list*
%AMRoundRect*
0 Rectangle with rounded corners*
0 $1 Rounding radius*
0 $2 $3 $4 $5 $6 $7 $8 $9 X,Y pos of 4 corners*
0 Add a 4 corners polygon primitive as box body*
4,1,4,$2,$3,$4,$5,$6,$7,$8,$9,$2,$3,0*
0 Add four circle primitives for the rounded corners*
1,1,$1+$1,$2,$3*
1,1,$1+$1,$4,$5*
1,1,$1+$1,$6,$7*
1,1,$1+$1,$8,$9*
0 Add four rect primitives between the rounded corners*
20,1,$1+$1,$2,$3,$4,$5,0*
20,1,$1+$1,$4,$5,$6,$7,0*
20,1,$1+$1,$6,$7,$8,$9,0*
20,1,$1+$1,$8,$9,$2,$3,0*%
G04 Aperture macros list end*
%ADD10RoundRect,0.250000X0.312500X0.625000X-0.312500X0.625000X-0.312500X-0.625000X0.312500X-0.625000X0*%
%ADD11RoundRect,0.250000X0.625000X-0.312500X0.625000X0.312500X-0.625000X0.312500X-0.625000X-0.312500X0*%
%ADD12RoundRect,0.250000X-0.650000X0.325000X-0.650000X-0.325000X0.650000X-0.325000X0.650000X0.325000X0*%
%ADD13RoundRect,0.250000X-0.312500X-0.625000X0.312500X-0.625000X0.312500X0.625000X-0.312500X0.625000X0*%
%ADD14C,3.000000*%
%ADD15RoundRect,0.250000X-0.625000X0.312500X-0.625000X-0.312500X0.625000X-0.312500X0.625000X0.312500X0*%
%ADD16RoundRect,0.250000X0.325000X0.650000X-0.325000X0.650000X-0.325000X-0.650000X0.325000X-0.650000X0*%
%ADD17RoundRect,0.112500X0.112500X0.237500X-0.112500X0.237500X-0.112500X-0.237500X0.112500X-0.237500X0*%
%ADD18RoundRect,0.250000X-0.325000X-0.650000X0.325000X-0.650000X0.325000X0.650000X-0.325000X0.650000X0*%
%ADD19RoundRect,0.250000X0.650000X-0.325000X0.650000X0.325000X-0.650000X0.325000X-0.650000X-0.325000X0*%
%ADD20R,1.200000X0.600000*%
%ADD21R,1.700000X1.700000*%
%ADD22O,1.700000X1.700000*%
%ADD23O,1.600000X2.500000*%
%ADD24O,3.500000X7.000000*%
%ADD25R,1.800000X1.800000*%
%ADD26C,1.800000*%
%ADD27RoundRect,0.102000X-0.975000X-0.975000X0.975000X-0.975000X0.975000X0.975000X-0.975000X0.975000X0*%
%ADD28C,2.154000*%
%ADD29RoundRect,0.250000X-0.550000X0.550000X-0.550000X-0.550000X0.550000X-0.550000X0.550000X0.550000X0*%
%ADD30C,1.600000*%
%ADD31R,2.775000X2.775000*%
%ADD32C,2.775000*%
%ADD33R,2.000000X1.200000*%
%ADD34O,2.000000X1.200000*%
G04 APERTURE END LIST*
D10*
%TO.C,R4*%
X126987500Y-79760000D03*
X124062500Y-79760000D03*
%TD*%
D11*
%TO.C,R18*%
X178075000Y-95137500D03*
X178075000Y-92212500D03*
%TD*%
D10*
%TO.C,R7*%
X134525000Y-82760000D03*
X131600000Y-82760000D03*
%TD*%
D12*
%TO.C,C15*%
X162225000Y-83385000D03*
X162225000Y-86335000D03*
%TD*%
D13*
%TO.C,R19*%
X161187500Y-91335000D03*
X164112500Y-91335000D03*
%TD*%
D14*
%TO.C,H3*%
X200000000Y-69000000D03*
%TD*%
D15*
%TO.C,R1*%
X113270000Y-81200000D03*
X113270000Y-84125000D03*
%TD*%
D13*
%TO.C,R12*%
X160575000Y-74250000D03*
X163500000Y-74250000D03*
%TD*%
D14*
%TO.C,H2*%
X95000000Y-111000000D03*
%TD*%
D16*
%TO.C,C6*%
X126937500Y-85260000D03*
X123987500Y-85260000D03*
%TD*%
D11*
%TO.C,R20*%
X165650000Y-101335000D03*
X165650000Y-98410000D03*
%TD*%
D17*
%TO.C,D1*%
X163300000Y-98335000D03*
X162000000Y-98335000D03*
X162650000Y-100335000D03*
%TD*%
D12*
%TO.C,C5*%
X132750000Y-69775000D03*
X132750000Y-72725000D03*
%TD*%
D18*
%TO.C,C10*%
X138825000Y-87760000D03*
X141775000Y-87760000D03*
%TD*%
D13*
%TO.C,R8*%
X138650000Y-79760000D03*
X141575000Y-79760000D03*
%TD*%
D11*
%TO.C,R21*%
X158650000Y-100260000D03*
X158650000Y-97335000D03*
%TD*%
D18*
%TO.C,C17*%
X166275000Y-79870000D03*
X169225000Y-79870000D03*
%TD*%
D15*
%TO.C,R22*%
X154400000Y-98797500D03*
X154400000Y-101722500D03*
%TD*%
D18*
%TO.C,C19*%
X161175000Y-94835000D03*
X164125000Y-94835000D03*
%TD*%
D16*
%TO.C,C8*%
X134600000Y-85260000D03*
X131650000Y-85260000D03*
%TD*%
D19*
%TO.C,C1*%
X110690000Y-97950000D03*
X110690000Y-95000000D03*
%TD*%
D10*
%TO.C,R2*%
X115025000Y-86250000D03*
X112100000Y-86250000D03*
%TD*%
%TO.C,R5*%
X126862500Y-82760000D03*
X123937500Y-82760000D03*
%TD*%
%TO.C,R17*%
X178000000Y-97250000D03*
X175075000Y-97250000D03*
%TD*%
D15*
%TO.C,R3*%
X119150000Y-79260000D03*
X119150000Y-82185000D03*
%TD*%
D14*
%TO.C,H1*%
X95000000Y-69000000D03*
%TD*%
D16*
%TO.C,C7*%
X126937500Y-87760000D03*
X123987500Y-87760000D03*
%TD*%
D10*
%TO.C,R6*%
X134612500Y-79760000D03*
X131687500Y-79760000D03*
%TD*%
D14*
%TO.C,H4*%
X200000000Y-111000000D03*
%TD*%
D13*
%TO.C,R9*%
X138825000Y-82760000D03*
X141750000Y-82760000D03*
%TD*%
%TO.C,R13*%
X166300000Y-74300000D03*
X169225000Y-74300000D03*
%TD*%
%TO.C,R10*%
X155737500Y-78530000D03*
X158662500Y-78530000D03*
%TD*%
D18*
%TO.C,C9*%
X138825000Y-85260000D03*
X141775000Y-85260000D03*
%TD*%
D16*
%TO.C,C12*%
X158660000Y-75750000D03*
X155710000Y-75750000D03*
%TD*%
%TO.C,C3*%
X115000000Y-88750000D03*
X112050000Y-88750000D03*
%TD*%
D15*
%TO.C,R16*%
X183000000Y-87537500D03*
X183000000Y-90462500D03*
%TD*%
D20*
%TO.C,IC1*%
X166650000Y-82370000D03*
X166650000Y-83320000D03*
X166650000Y-84270000D03*
X169150000Y-84270000D03*
X169150000Y-83320000D03*
X169150000Y-82370000D03*
%TD*%
D16*
%TO.C,C4*%
X115000000Y-91250000D03*
X112050000Y-91250000D03*
%TD*%
%TO.C,C23*%
X169125000Y-66835000D03*
X166175000Y-66835000D03*
%TD*%
D18*
%TO.C,C18*%
X166225000Y-77370000D03*
X169175000Y-77370000D03*
%TD*%
D10*
%TO.C,R14*%
X159650000Y-83835000D03*
X156725000Y-83835000D03*
%TD*%
D16*
%TO.C,C14*%
X163450000Y-71500000D03*
X160500000Y-71500000D03*
%TD*%
D13*
%TO.C,R11*%
X160537500Y-77000000D03*
X163462500Y-77000000D03*
%TD*%
D16*
%TO.C,C13*%
X158640000Y-73000000D03*
X155690000Y-73000000D03*
%TD*%
D19*
%TO.C,C2*%
X110770000Y-84200000D03*
X110770000Y-81250000D03*
%TD*%
D21*
%TO.C,J2*%
X149100000Y-87475000D03*
D22*
X149100000Y-84935000D03*
X149100000Y-82395000D03*
%TD*%
D23*
%TO.C,J1*%
X120500000Y-102100000D03*
D24*
X115420000Y-107180000D03*
D23*
X117960000Y-102100000D03*
D24*
X125580000Y-107180000D03*
%TD*%
D25*
%TO.C,C11*%
X149150000Y-72335000D03*
D26*
X149150000Y-77335000D03*
%TD*%
D27*
%TO.C,S3*%
X123650000Y-69260000D03*
D28*
X126650000Y-69260000D03*
X129650000Y-69260000D03*
X135650000Y-69260000D03*
X138650000Y-69260000D03*
X123650000Y-73260000D03*
X126650000Y-73260000D03*
X129650000Y-73260000D03*
X135650000Y-73260000D03*
X138650000Y-73260000D03*
X119150000Y-75760000D03*
X119150000Y-66760000D03*
X143150000Y-75760000D03*
X143150000Y-66760000D03*
%TD*%
D29*
%TO.C,U1*%
X156030000Y-81215000D03*
D30*
X158570000Y-81215000D03*
X161110000Y-81215000D03*
X163650000Y-81215000D03*
X163650000Y-88835000D03*
X161110000Y-88835000D03*
X158570000Y-88835000D03*
X156030000Y-88835000D03*
%TD*%
D31*
%TO.C,S2*%
X96740000Y-85090000D03*
D32*
X101440000Y-85090000D03*
X106140000Y-85090000D03*
X96740000Y-80260000D03*
X101440000Y-80260000D03*
X106140000Y-80260000D03*
%TD*%
D33*
%TO.C,U4*%
X171650000Y-112730000D03*
D34*
X171650000Y-110190000D03*
X171650000Y-107650000D03*
X171650000Y-105110000D03*
X171650000Y-102570000D03*
X171650000Y-100030000D03*
X171650000Y-97490000D03*
X171650000Y-94950000D03*
X171650000Y-92410000D03*
X171650000Y-89870000D03*
X171650000Y-87330000D03*
X171650000Y-84790000D03*
X171650000Y-82250000D03*
X171650000Y-79710000D03*
X171650000Y-77170000D03*
X171650000Y-74630000D03*
X171650000Y-72090000D03*
X171650000Y-69550000D03*
X171650000Y-67010000D03*
X194646320Y-67012720D03*
X194646320Y-69552720D03*
X194650000Y-72090000D03*
X194650000Y-74630000D03*
X194650000Y-77170000D03*
X194650000Y-79710000D03*
X194650000Y-82250000D03*
X194650000Y-84790000D03*
X194650000Y-87330000D03*
X194650000Y-89870000D03*
X194650000Y-92410000D03*
X194650000Y-94950000D03*
X194650000Y-97490000D03*
X194650000Y-100030000D03*
X194650000Y-102570000D03*
X194650000Y-105110000D03*
X194650000Y-107650000D03*
X194650000Y-110190000D03*
X194650000Y-112730000D03*
%TD*%
D25*
%TO.C,D2*%
X154400000Y-95072500D03*
D26*
X154400000Y-92532500D03*
%TD*%
D31*
%TO.C,S1*%
X96740000Y-99480000D03*
D32*
X101440000Y-99480000D03*
X106140000Y-99480000D03*
X96740000Y-94650000D03*
X101440000Y-94650000D03*
X106140000Y-94650000D03*
%TD*%
D30*
X200000000Y-74500000D03*
X200000000Y-82250000D03*
X200000000Y-105500000D03*
X200000000Y-89900000D03*
M02*
