%TF.GenerationSoftware,KiCad,Pcbnew,9.0.1*%
%TF.CreationDate,2025-04-07T11:22:38-03:00*%
%TF.ProjectId,Proyecto integrador 1.1,50726f79-6563-4746-9f20-696e74656772,rev?*%
%TF.SameCoordinates,Original*%
%TF.FileFunction,Soldermask,Bot*%
%TF.FilePolarity,Negative*%
%FSLAX46Y46*%
G04 Gerber Fmt 4.6, Leading zero omitted, Abs format (unit mm)*
G04 Created by KiCad (PCBNEW 9.0.1) date 2025-04-07 11:22:38*
%MOMM*%
%LPD*%
G01*
G04 APERTURE LIST*
G04 Aperture macros list*
%AMRoundRect*
0 Rectangle with rounded corners*
0 $1 Rounding radius*
0 $2 $3 $4 $5 $6 $7 $8 $9 X,Y pos of 4 corners*
0 Add a 4 corners polygon primitive as box body*
4,1,4,$2,$3,$4,$5,$6,$7,$8,$9,$2,$3,0*
0 Add four circle primitives for the rounded corners*
1,1,$1+$1,$2,$3*
1,1,$1+$1,$4,$5*
1,1,$1+$1,$6,$7*
1,1,$1+$1,$8,$9*
0 Add four rect primitives between the rounded corners*
20,1,$1+$1,$2,$3,$4,$5,0*
20,1,$1+$1,$4,$5,$6,$7,0*
20,1,$1+$1,$6,$7,$8,$9,0*
20,1,$1+$1,$8,$9,$2,$3,0*%
G04 Aperture macros list end*
%ADD10C,3.000000*%
%ADD11R,1.700000X1.700000*%
%ADD12O,1.700000X1.700000*%
%ADD13RoundRect,0.250000X-0.650000X0.325000X-0.650000X-0.325000X0.650000X-0.325000X0.650000X0.325000X0*%
%ADD14O,1.600000X2.500000*%
%ADD15O,3.500000X7.000000*%
%ADD16R,1.800000X1.800000*%
%ADD17C,1.800000*%
%ADD18RoundRect,0.102000X-0.975000X-0.975000X0.975000X-0.975000X0.975000X0.975000X-0.975000X0.975000X0*%
%ADD19C,2.154000*%
%ADD20RoundRect,0.250000X-0.550000X0.550000X-0.550000X-0.550000X0.550000X-0.550000X0.550000X0.550000X0*%
%ADD21C,1.600000*%
%ADD22RoundRect,0.250000X0.325000X0.650000X-0.325000X0.650000X-0.325000X-0.650000X0.325000X-0.650000X0*%
%ADD23RoundRect,0.150000X-0.512500X-0.150000X0.512500X-0.150000X0.512500X0.150000X-0.512500X0.150000X0*%
%ADD24R,2.775000X2.775000*%
%ADD25C,2.775000*%
%ADD26RoundRect,0.250000X0.312500X0.625000X-0.312500X0.625000X-0.312500X-0.625000X0.312500X-0.625000X0*%
%ADD27R,2.000000X1.200000*%
%ADD28O,2.000000X1.200000*%
G04 APERTURE END LIST*
D10*
%TO.C,H3*%
X200000000Y-69000000D03*
%TD*%
%TO.C,H2*%
X95000000Y-111000000D03*
%TD*%
%TO.C,H1*%
X95000000Y-69000000D03*
%TD*%
%TO.C,H4*%
X200000000Y-111000000D03*
%TD*%
D11*
%TO.C,J2*%
X149100000Y-87475000D03*
D12*
X149100000Y-84935000D03*
X149100000Y-82395000D03*
%TD*%
D13*
%TO.C,C21*%
X168150000Y-69335000D03*
X168150000Y-72285000D03*
%TD*%
D14*
%TO.C,J1*%
X120500000Y-102100000D03*
D15*
X115420000Y-107180000D03*
D14*
X117960000Y-102100000D03*
D15*
X125580000Y-107180000D03*
%TD*%
D16*
%TO.C,C11*%
X149150000Y-72335000D03*
D17*
X149150000Y-77335000D03*
%TD*%
D18*
%TO.C,S3*%
X123650000Y-69260000D03*
D19*
X126650000Y-69260000D03*
X129650000Y-69260000D03*
X135650000Y-69260000D03*
X138650000Y-69260000D03*
X123650000Y-73260000D03*
X126650000Y-73260000D03*
X129650000Y-73260000D03*
X135650000Y-73260000D03*
X138650000Y-73260000D03*
X119150000Y-75760000D03*
X119150000Y-66760000D03*
X143150000Y-75760000D03*
X143150000Y-66760000D03*
%TD*%
D20*
%TO.C,U1*%
X156030000Y-81215000D03*
D21*
X158570000Y-81215000D03*
X161110000Y-81215000D03*
X163650000Y-81215000D03*
X163650000Y-88835000D03*
X161110000Y-88835000D03*
X158570000Y-88835000D03*
X156030000Y-88835000D03*
%TD*%
D13*
%TO.C,C20*%
X160650000Y-66835000D03*
X160650000Y-69785000D03*
%TD*%
%TO.C,C16*%
X166650000Y-103385000D03*
X166650000Y-106335000D03*
%TD*%
D22*
%TO.C,C22*%
X163650000Y-72000000D03*
X160700000Y-72000000D03*
%TD*%
D23*
%TO.C,U3*%
X163650000Y-69785000D03*
X163650000Y-68835000D03*
X163650000Y-67885000D03*
X165925000Y-67885000D03*
X165925000Y-68835000D03*
X165925000Y-69785000D03*
%TD*%
D24*
%TO.C,S2*%
X96740000Y-85090000D03*
D25*
X101440000Y-85090000D03*
X106140000Y-85090000D03*
X96740000Y-80260000D03*
X101440000Y-80260000D03*
X106140000Y-80260000D03*
%TD*%
D26*
%TO.C,R15*%
X164150000Y-103335000D03*
X161225000Y-103335000D03*
%TD*%
D27*
%TO.C,U4*%
X171650000Y-112730000D03*
D28*
X171650000Y-110190000D03*
X171650000Y-107650000D03*
X171650000Y-105110000D03*
X171650000Y-102570000D03*
X171650000Y-100030000D03*
X171650000Y-97490000D03*
X171650000Y-94950000D03*
X171650000Y-92410000D03*
X171650000Y-89870000D03*
X171650000Y-87330000D03*
X171650000Y-84790000D03*
X171650000Y-82250000D03*
X171650000Y-79710000D03*
X171650000Y-77170000D03*
X171650000Y-74630000D03*
X171650000Y-72090000D03*
X171650000Y-69550000D03*
X171650000Y-67010000D03*
X194646320Y-67012720D03*
X194646320Y-69552720D03*
X194650000Y-72090000D03*
X194650000Y-74630000D03*
X194650000Y-77170000D03*
X194650000Y-79710000D03*
X194650000Y-82250000D03*
X194650000Y-84790000D03*
X194650000Y-87330000D03*
X194650000Y-89870000D03*
X194650000Y-92410000D03*
X194650000Y-94950000D03*
X194650000Y-97490000D03*
X194650000Y-100030000D03*
X194650000Y-102570000D03*
X194650000Y-105110000D03*
X194650000Y-107650000D03*
X194650000Y-110190000D03*
X194650000Y-112730000D03*
%TD*%
D16*
%TO.C,D2*%
X154400000Y-95072500D03*
D17*
X154400000Y-92532500D03*
%TD*%
D24*
%TO.C,S1*%
X96740000Y-99480000D03*
D25*
X101440000Y-99480000D03*
X106140000Y-99480000D03*
X96740000Y-94650000D03*
X101440000Y-94650000D03*
X106140000Y-94650000D03*
%TD*%
D21*
X200000000Y-74500000D03*
X200000000Y-82250000D03*
X200000000Y-105500000D03*
X200000000Y-89900000D03*
M02*
