M48
; DRILL file {KiCad 9.0.1} date 2025-04-07T11:22:21-0300
; FORMAT={-:-/ absolute / metric / decimal}
; #@! TF.CreationDate,2025-04-07T11:22:21-03:00
; #@! TF.GenerationSoftware,Kicad,Pcbnew,9.0.1
; #@! TF.FileFunction,Plated,1,2,PTH
FMAT,2
METRIC
; #@! TA.AperFunction,Plated,PTH,ViaDrill
T1C0.400
; #@! TA.AperFunction,Plated,PTH,ViaDrill
T2C0.800
; #@! TA.AperFunction,Plated,PTH,ComponentDrill
T3C0.800
; #@! TA.AperFunction,Plated,PTH,ComponentDrill
T4C0.890
; #@! TA.AperFunction,Plated,PTH,ComponentDrill
T5C0.900
; #@! TA.AperFunction,Plated,PTH,ComponentDrill
T6C1.000
; #@! TA.AperFunction,Plated,PTH,ComponentDrill
T7C1.200
; #@! TA.AperFunction,Plated,PTH,ComponentDrill
T8C1.300
; #@! TA.AperFunction,Plated,PTH,ComponentDrill
T9C1.850
; #@! TA.AperFunction,Plated,PTH,ComponentDrill
T10C2.010
%
G90
G05
T1
X173.25Y-88.6
X175.7Y-88.6
X180.8Y-96.2
T2
X158.25Y-69.8
X169.0Y-106.3
X200.0Y-74.5
X200.0Y-82.25
X200.0Y-89.9
X200.0Y-105.5
T3
X156.03Y-81.215
X156.03Y-88.835
X158.57Y-81.215
X158.57Y-88.835
X161.11Y-81.215
X161.11Y-88.835
X163.65Y-81.215
X163.65Y-88.835
X171.65Y-67.01
X171.65Y-69.55
X171.65Y-72.09
X171.65Y-74.63
X171.65Y-77.17
X171.65Y-79.71
X171.65Y-82.25
X171.65Y-84.79
X171.65Y-87.33
X171.65Y-89.87
X171.65Y-92.41
X171.65Y-94.95
X171.65Y-97.49
X171.65Y-100.03
X171.65Y-102.57
X171.65Y-105.11
X171.65Y-107.65
X171.65Y-110.19
X171.65Y-112.73
X194.646Y-67.013
X194.646Y-69.553
X194.65Y-72.09
X194.65Y-74.63
X194.65Y-77.17
X194.65Y-79.71
X194.65Y-82.25
X194.65Y-84.79
X194.65Y-87.33
X194.65Y-89.87
X194.65Y-92.41
X194.65Y-94.95
X194.65Y-97.49
X194.65Y-100.03
X194.65Y-102.57
X194.65Y-105.11
X194.65Y-107.65
X194.65Y-110.19
X194.65Y-112.73
T4
X117.96Y-102.1
X120.5Y-102.1
T5
X154.4Y-92.532
X154.4Y-95.072
T6
X149.1Y-82.395
X149.1Y-84.935
X149.1Y-87.475
T7
X149.15Y-72.335
X149.15Y-77.335
T8
X119.15Y-66.76
X119.15Y-75.76
X123.65Y-69.26
X123.65Y-73.26
X126.65Y-69.26
X126.65Y-73.26
X129.65Y-69.26
X129.65Y-73.26
X135.65Y-69.26
X135.65Y-73.26
X138.65Y-69.26
X138.65Y-73.26
X143.15Y-66.76
X143.15Y-75.76
T9
X96.74Y-80.26
X96.74Y-85.09
X96.74Y-94.65
X96.74Y-99.48
X101.44Y-80.26
X101.44Y-85.09
X101.44Y-94.65
X101.44Y-99.48
X106.14Y-80.26
X106.14Y-85.09
X106.14Y-94.65
X106.14Y-99.48
T10
X115.42Y-107.18
X125.58Y-107.18
M30
