%TF.GenerationSoftware,KiCad,Pcbnew,9.0.1*%
%TF.CreationDate,2025-04-07T11:22:38-03:00*%
%TF.ProjectId,Proyecto integrador 1.1,50726f79-6563-4746-9f20-696e74656772,rev?*%
%TF.SameCoordinates,Original*%
%TF.FileFunction,Legend,Top*%
%TF.FilePolarity,Positive*%
%FSLAX46Y46*%
G04 Gerber Fmt 4.6, Leading zero omitted, Abs format (unit mm)*
G04 Created by KiCad (PCBNEW 9.0.1) date 2025-04-07 11:22:38*
%MOMM*%
%LPD*%
G01*
G04 APERTURE LIST*
%ADD10C,0.150000*%
%ADD11C,0.254000*%
%ADD12C,0.120000*%
%ADD13C,0.200000*%
G04 APERTURE END LIST*
D10*
X122992319Y-79926666D02*
X122516128Y-80259999D01*
X122992319Y-80498094D02*
X121992319Y-80498094D01*
X121992319Y-80498094D02*
X121992319Y-80117142D01*
X121992319Y-80117142D02*
X122039938Y-80021904D01*
X122039938Y-80021904D02*
X122087557Y-79974285D01*
X122087557Y-79974285D02*
X122182795Y-79926666D01*
X122182795Y-79926666D02*
X122325652Y-79926666D01*
X122325652Y-79926666D02*
X122420890Y-79974285D01*
X122420890Y-79974285D02*
X122468509Y-80021904D01*
X122468509Y-80021904D02*
X122516128Y-80117142D01*
X122516128Y-80117142D02*
X122516128Y-80498094D01*
X122325652Y-79069523D02*
X122992319Y-79069523D01*
X121944700Y-79307618D02*
X122658985Y-79545713D01*
X122658985Y-79545713D02*
X122658985Y-78926666D01*
X176709819Y-94317857D02*
X176233628Y-94651190D01*
X176709819Y-94889285D02*
X175709819Y-94889285D01*
X175709819Y-94889285D02*
X175709819Y-94508333D01*
X175709819Y-94508333D02*
X175757438Y-94413095D01*
X175757438Y-94413095D02*
X175805057Y-94365476D01*
X175805057Y-94365476D02*
X175900295Y-94317857D01*
X175900295Y-94317857D02*
X176043152Y-94317857D01*
X176043152Y-94317857D02*
X176138390Y-94365476D01*
X176138390Y-94365476D02*
X176186009Y-94413095D01*
X176186009Y-94413095D02*
X176233628Y-94508333D01*
X176233628Y-94508333D02*
X176233628Y-94889285D01*
X176709819Y-93365476D02*
X176709819Y-93936904D01*
X176709819Y-93651190D02*
X175709819Y-93651190D01*
X175709819Y-93651190D02*
X175852676Y-93746428D01*
X175852676Y-93746428D02*
X175947914Y-93841666D01*
X175947914Y-93841666D02*
X175995533Y-93936904D01*
X176138390Y-92794047D02*
X176090771Y-92889285D01*
X176090771Y-92889285D02*
X176043152Y-92936904D01*
X176043152Y-92936904D02*
X175947914Y-92984523D01*
X175947914Y-92984523D02*
X175900295Y-92984523D01*
X175900295Y-92984523D02*
X175805057Y-92936904D01*
X175805057Y-92936904D02*
X175757438Y-92889285D01*
X175757438Y-92889285D02*
X175709819Y-92794047D01*
X175709819Y-92794047D02*
X175709819Y-92603571D01*
X175709819Y-92603571D02*
X175757438Y-92508333D01*
X175757438Y-92508333D02*
X175805057Y-92460714D01*
X175805057Y-92460714D02*
X175900295Y-92413095D01*
X175900295Y-92413095D02*
X175947914Y-92413095D01*
X175947914Y-92413095D02*
X176043152Y-92460714D01*
X176043152Y-92460714D02*
X176090771Y-92508333D01*
X176090771Y-92508333D02*
X176138390Y-92603571D01*
X176138390Y-92603571D02*
X176138390Y-92794047D01*
X176138390Y-92794047D02*
X176186009Y-92889285D01*
X176186009Y-92889285D02*
X176233628Y-92936904D01*
X176233628Y-92936904D02*
X176328866Y-92984523D01*
X176328866Y-92984523D02*
X176519342Y-92984523D01*
X176519342Y-92984523D02*
X176614580Y-92936904D01*
X176614580Y-92936904D02*
X176662200Y-92889285D01*
X176662200Y-92889285D02*
X176709819Y-92794047D01*
X176709819Y-92794047D02*
X176709819Y-92603571D01*
X176709819Y-92603571D02*
X176662200Y-92508333D01*
X176662200Y-92508333D02*
X176614580Y-92460714D01*
X176614580Y-92460714D02*
X176519342Y-92413095D01*
X176519342Y-92413095D02*
X176328866Y-92413095D01*
X176328866Y-92413095D02*
X176233628Y-92460714D01*
X176233628Y-92460714D02*
X176186009Y-92508333D01*
X176186009Y-92508333D02*
X176138390Y-92603571D01*
X130554819Y-82926666D02*
X130078628Y-83259999D01*
X130554819Y-83498094D02*
X129554819Y-83498094D01*
X129554819Y-83498094D02*
X129554819Y-83117142D01*
X129554819Y-83117142D02*
X129602438Y-83021904D01*
X129602438Y-83021904D02*
X129650057Y-82974285D01*
X129650057Y-82974285D02*
X129745295Y-82926666D01*
X129745295Y-82926666D02*
X129888152Y-82926666D01*
X129888152Y-82926666D02*
X129983390Y-82974285D01*
X129983390Y-82974285D02*
X130031009Y-83021904D01*
X130031009Y-83021904D02*
X130078628Y-83117142D01*
X130078628Y-83117142D02*
X130078628Y-83498094D01*
X129554819Y-82593332D02*
X129554819Y-81926666D01*
X129554819Y-81926666D02*
X130554819Y-82355237D01*
X164434580Y-85502857D02*
X164482200Y-85550476D01*
X164482200Y-85550476D02*
X164529819Y-85693333D01*
X164529819Y-85693333D02*
X164529819Y-85788571D01*
X164529819Y-85788571D02*
X164482200Y-85931428D01*
X164482200Y-85931428D02*
X164386961Y-86026666D01*
X164386961Y-86026666D02*
X164291723Y-86074285D01*
X164291723Y-86074285D02*
X164101247Y-86121904D01*
X164101247Y-86121904D02*
X163958390Y-86121904D01*
X163958390Y-86121904D02*
X163767914Y-86074285D01*
X163767914Y-86074285D02*
X163672676Y-86026666D01*
X163672676Y-86026666D02*
X163577438Y-85931428D01*
X163577438Y-85931428D02*
X163529819Y-85788571D01*
X163529819Y-85788571D02*
X163529819Y-85693333D01*
X163529819Y-85693333D02*
X163577438Y-85550476D01*
X163577438Y-85550476D02*
X163625057Y-85502857D01*
X164529819Y-84550476D02*
X164529819Y-85121904D01*
X164529819Y-84836190D02*
X163529819Y-84836190D01*
X163529819Y-84836190D02*
X163672676Y-84931428D01*
X163672676Y-84931428D02*
X163767914Y-85026666D01*
X163767914Y-85026666D02*
X163815533Y-85121904D01*
X163529819Y-83645714D02*
X163529819Y-84121904D01*
X163529819Y-84121904D02*
X164006009Y-84169523D01*
X164006009Y-84169523D02*
X163958390Y-84121904D01*
X163958390Y-84121904D02*
X163910771Y-84026666D01*
X163910771Y-84026666D02*
X163910771Y-83788571D01*
X163910771Y-83788571D02*
X163958390Y-83693333D01*
X163958390Y-83693333D02*
X164006009Y-83645714D01*
X164006009Y-83645714D02*
X164101247Y-83598095D01*
X164101247Y-83598095D02*
X164339342Y-83598095D01*
X164339342Y-83598095D02*
X164434580Y-83645714D01*
X164434580Y-83645714D02*
X164482200Y-83693333D01*
X164482200Y-83693333D02*
X164529819Y-83788571D01*
X164529819Y-83788571D02*
X164529819Y-84026666D01*
X164529819Y-84026666D02*
X164482200Y-84121904D01*
X164482200Y-84121904D02*
X164434580Y-84169523D01*
X166354819Y-91902857D02*
X165878628Y-92236190D01*
X166354819Y-92474285D02*
X165354819Y-92474285D01*
X165354819Y-92474285D02*
X165354819Y-92093333D01*
X165354819Y-92093333D02*
X165402438Y-91998095D01*
X165402438Y-91998095D02*
X165450057Y-91950476D01*
X165450057Y-91950476D02*
X165545295Y-91902857D01*
X165545295Y-91902857D02*
X165688152Y-91902857D01*
X165688152Y-91902857D02*
X165783390Y-91950476D01*
X165783390Y-91950476D02*
X165831009Y-91998095D01*
X165831009Y-91998095D02*
X165878628Y-92093333D01*
X165878628Y-92093333D02*
X165878628Y-92474285D01*
X166354819Y-90950476D02*
X166354819Y-91521904D01*
X166354819Y-91236190D02*
X165354819Y-91236190D01*
X165354819Y-91236190D02*
X165497676Y-91331428D01*
X165497676Y-91331428D02*
X165592914Y-91426666D01*
X165592914Y-91426666D02*
X165640533Y-91521904D01*
X166354819Y-90474285D02*
X166354819Y-90283809D01*
X166354819Y-90283809D02*
X166307200Y-90188571D01*
X166307200Y-90188571D02*
X166259580Y-90140952D01*
X166259580Y-90140952D02*
X166116723Y-90045714D01*
X166116723Y-90045714D02*
X165926247Y-89998095D01*
X165926247Y-89998095D02*
X165545295Y-89998095D01*
X165545295Y-89998095D02*
X165450057Y-90045714D01*
X165450057Y-90045714D02*
X165402438Y-90093333D01*
X165402438Y-90093333D02*
X165354819Y-90188571D01*
X165354819Y-90188571D02*
X165354819Y-90379047D01*
X165354819Y-90379047D02*
X165402438Y-90474285D01*
X165402438Y-90474285D02*
X165450057Y-90521904D01*
X165450057Y-90521904D02*
X165545295Y-90569523D01*
X165545295Y-90569523D02*
X165783390Y-90569523D01*
X165783390Y-90569523D02*
X165878628Y-90521904D01*
X165878628Y-90521904D02*
X165926247Y-90474285D01*
X165926247Y-90474285D02*
X165973866Y-90379047D01*
X165973866Y-90379047D02*
X165973866Y-90188571D01*
X165973866Y-90188571D02*
X165926247Y-90093333D01*
X165926247Y-90093333D02*
X165878628Y-90045714D01*
X165878628Y-90045714D02*
X165783390Y-89998095D01*
X199238095Y-72454819D02*
X199238095Y-71454819D01*
X199238095Y-71931009D02*
X199809523Y-71931009D01*
X199809523Y-72454819D02*
X199809523Y-71454819D01*
X200190476Y-71454819D02*
X200809523Y-71454819D01*
X200809523Y-71454819D02*
X200476190Y-71835771D01*
X200476190Y-71835771D02*
X200619047Y-71835771D01*
X200619047Y-71835771D02*
X200714285Y-71883390D01*
X200714285Y-71883390D02*
X200761904Y-71931009D01*
X200761904Y-71931009D02*
X200809523Y-72026247D01*
X200809523Y-72026247D02*
X200809523Y-72264342D01*
X200809523Y-72264342D02*
X200761904Y-72359580D01*
X200761904Y-72359580D02*
X200714285Y-72407200D01*
X200714285Y-72407200D02*
X200619047Y-72454819D01*
X200619047Y-72454819D02*
X200333333Y-72454819D01*
X200333333Y-72454819D02*
X200238095Y-72407200D01*
X200238095Y-72407200D02*
X200190476Y-72359580D01*
X113724819Y-79666666D02*
X113248628Y-79999999D01*
X113724819Y-80238094D02*
X112724819Y-80238094D01*
X112724819Y-80238094D02*
X112724819Y-79857142D01*
X112724819Y-79857142D02*
X112772438Y-79761904D01*
X112772438Y-79761904D02*
X112820057Y-79714285D01*
X112820057Y-79714285D02*
X112915295Y-79666666D01*
X112915295Y-79666666D02*
X113058152Y-79666666D01*
X113058152Y-79666666D02*
X113153390Y-79714285D01*
X113153390Y-79714285D02*
X113201009Y-79761904D01*
X113201009Y-79761904D02*
X113248628Y-79857142D01*
X113248628Y-79857142D02*
X113248628Y-80238094D01*
X113724819Y-78714285D02*
X113724819Y-79285713D01*
X113724819Y-78999999D02*
X112724819Y-78999999D01*
X112724819Y-78999999D02*
X112867676Y-79095237D01*
X112867676Y-79095237D02*
X112962914Y-79190475D01*
X112962914Y-79190475D02*
X113010533Y-79285713D01*
X165454819Y-74142857D02*
X164978628Y-74476190D01*
X165454819Y-74714285D02*
X164454819Y-74714285D01*
X164454819Y-74714285D02*
X164454819Y-74333333D01*
X164454819Y-74333333D02*
X164502438Y-74238095D01*
X164502438Y-74238095D02*
X164550057Y-74190476D01*
X164550057Y-74190476D02*
X164645295Y-74142857D01*
X164645295Y-74142857D02*
X164788152Y-74142857D01*
X164788152Y-74142857D02*
X164883390Y-74190476D01*
X164883390Y-74190476D02*
X164931009Y-74238095D01*
X164931009Y-74238095D02*
X164978628Y-74333333D01*
X164978628Y-74333333D02*
X164978628Y-74714285D01*
X165454819Y-73190476D02*
X165454819Y-73761904D01*
X165454819Y-73476190D02*
X164454819Y-73476190D01*
X164454819Y-73476190D02*
X164597676Y-73571428D01*
X164597676Y-73571428D02*
X164692914Y-73666666D01*
X164692914Y-73666666D02*
X164740533Y-73761904D01*
X164550057Y-72809523D02*
X164502438Y-72761904D01*
X164502438Y-72761904D02*
X164454819Y-72666666D01*
X164454819Y-72666666D02*
X164454819Y-72428571D01*
X164454819Y-72428571D02*
X164502438Y-72333333D01*
X164502438Y-72333333D02*
X164550057Y-72285714D01*
X164550057Y-72285714D02*
X164645295Y-72238095D01*
X164645295Y-72238095D02*
X164740533Y-72238095D01*
X164740533Y-72238095D02*
X164883390Y-72285714D01*
X164883390Y-72285714D02*
X165454819Y-72857142D01*
X165454819Y-72857142D02*
X165454819Y-72238095D01*
X94238095Y-108454819D02*
X94238095Y-107454819D01*
X94238095Y-107931009D02*
X94809523Y-107931009D01*
X94809523Y-108454819D02*
X94809523Y-107454819D01*
X95238095Y-107550057D02*
X95285714Y-107502438D01*
X95285714Y-107502438D02*
X95380952Y-107454819D01*
X95380952Y-107454819D02*
X95619047Y-107454819D01*
X95619047Y-107454819D02*
X95714285Y-107502438D01*
X95714285Y-107502438D02*
X95761904Y-107550057D01*
X95761904Y-107550057D02*
X95809523Y-107645295D01*
X95809523Y-107645295D02*
X95809523Y-107740533D01*
X95809523Y-107740533D02*
X95761904Y-107883390D01*
X95761904Y-107883390D02*
X95190476Y-108454819D01*
X95190476Y-108454819D02*
X95809523Y-108454819D01*
X122847080Y-85426666D02*
X122894700Y-85474285D01*
X122894700Y-85474285D02*
X122942319Y-85617142D01*
X122942319Y-85617142D02*
X122942319Y-85712380D01*
X122942319Y-85712380D02*
X122894700Y-85855237D01*
X122894700Y-85855237D02*
X122799461Y-85950475D01*
X122799461Y-85950475D02*
X122704223Y-85998094D01*
X122704223Y-85998094D02*
X122513747Y-86045713D01*
X122513747Y-86045713D02*
X122370890Y-86045713D01*
X122370890Y-86045713D02*
X122180414Y-85998094D01*
X122180414Y-85998094D02*
X122085176Y-85950475D01*
X122085176Y-85950475D02*
X121989938Y-85855237D01*
X121989938Y-85855237D02*
X121942319Y-85712380D01*
X121942319Y-85712380D02*
X121942319Y-85617142D01*
X121942319Y-85617142D02*
X121989938Y-85474285D01*
X121989938Y-85474285D02*
X122037557Y-85426666D01*
X121942319Y-84569523D02*
X121942319Y-84759999D01*
X121942319Y-84759999D02*
X121989938Y-84855237D01*
X121989938Y-84855237D02*
X122037557Y-84902856D01*
X122037557Y-84902856D02*
X122180414Y-84998094D01*
X122180414Y-84998094D02*
X122370890Y-85045713D01*
X122370890Y-85045713D02*
X122751842Y-85045713D01*
X122751842Y-85045713D02*
X122847080Y-84998094D01*
X122847080Y-84998094D02*
X122894700Y-84950475D01*
X122894700Y-84950475D02*
X122942319Y-84855237D01*
X122942319Y-84855237D02*
X122942319Y-84664761D01*
X122942319Y-84664761D02*
X122894700Y-84569523D01*
X122894700Y-84569523D02*
X122847080Y-84521904D01*
X122847080Y-84521904D02*
X122751842Y-84474285D01*
X122751842Y-84474285D02*
X122513747Y-84474285D01*
X122513747Y-84474285D02*
X122418509Y-84521904D01*
X122418509Y-84521904D02*
X122370890Y-84569523D01*
X122370890Y-84569523D02*
X122323271Y-84664761D01*
X122323271Y-84664761D02*
X122323271Y-84855237D01*
X122323271Y-84855237D02*
X122370890Y-84950475D01*
X122370890Y-84950475D02*
X122418509Y-84998094D01*
X122418509Y-84998094D02*
X122513747Y-85045713D01*
X168104819Y-100515357D02*
X167628628Y-100848690D01*
X168104819Y-101086785D02*
X167104819Y-101086785D01*
X167104819Y-101086785D02*
X167104819Y-100705833D01*
X167104819Y-100705833D02*
X167152438Y-100610595D01*
X167152438Y-100610595D02*
X167200057Y-100562976D01*
X167200057Y-100562976D02*
X167295295Y-100515357D01*
X167295295Y-100515357D02*
X167438152Y-100515357D01*
X167438152Y-100515357D02*
X167533390Y-100562976D01*
X167533390Y-100562976D02*
X167581009Y-100610595D01*
X167581009Y-100610595D02*
X167628628Y-100705833D01*
X167628628Y-100705833D02*
X167628628Y-101086785D01*
X167200057Y-100134404D02*
X167152438Y-100086785D01*
X167152438Y-100086785D02*
X167104819Y-99991547D01*
X167104819Y-99991547D02*
X167104819Y-99753452D01*
X167104819Y-99753452D02*
X167152438Y-99658214D01*
X167152438Y-99658214D02*
X167200057Y-99610595D01*
X167200057Y-99610595D02*
X167295295Y-99562976D01*
X167295295Y-99562976D02*
X167390533Y-99562976D01*
X167390533Y-99562976D02*
X167533390Y-99610595D01*
X167533390Y-99610595D02*
X168104819Y-100182023D01*
X168104819Y-100182023D02*
X168104819Y-99562976D01*
X167104819Y-98943928D02*
X167104819Y-98848690D01*
X167104819Y-98848690D02*
X167152438Y-98753452D01*
X167152438Y-98753452D02*
X167200057Y-98705833D01*
X167200057Y-98705833D02*
X167295295Y-98658214D01*
X167295295Y-98658214D02*
X167485771Y-98610595D01*
X167485771Y-98610595D02*
X167723866Y-98610595D01*
X167723866Y-98610595D02*
X167914342Y-98658214D01*
X167914342Y-98658214D02*
X168009580Y-98705833D01*
X168009580Y-98705833D02*
X168057200Y-98753452D01*
X168057200Y-98753452D02*
X168104819Y-98848690D01*
X168104819Y-98848690D02*
X168104819Y-98943928D01*
X168104819Y-98943928D02*
X168057200Y-99039166D01*
X168057200Y-99039166D02*
X168009580Y-99086785D01*
X168009580Y-99086785D02*
X167914342Y-99134404D01*
X167914342Y-99134404D02*
X167723866Y-99182023D01*
X167723866Y-99182023D02*
X167485771Y-99182023D01*
X167485771Y-99182023D02*
X167295295Y-99134404D01*
X167295295Y-99134404D02*
X167200057Y-99086785D01*
X167200057Y-99086785D02*
X167152438Y-99039166D01*
X167152438Y-99039166D02*
X167104819Y-98943928D01*
X161104819Y-99998094D02*
X160104819Y-99998094D01*
X160104819Y-99998094D02*
X160104819Y-99759999D01*
X160104819Y-99759999D02*
X160152438Y-99617142D01*
X160152438Y-99617142D02*
X160247676Y-99521904D01*
X160247676Y-99521904D02*
X160342914Y-99474285D01*
X160342914Y-99474285D02*
X160533390Y-99426666D01*
X160533390Y-99426666D02*
X160676247Y-99426666D01*
X160676247Y-99426666D02*
X160866723Y-99474285D01*
X160866723Y-99474285D02*
X160961961Y-99521904D01*
X160961961Y-99521904D02*
X161057200Y-99617142D01*
X161057200Y-99617142D02*
X161104819Y-99759999D01*
X161104819Y-99759999D02*
X161104819Y-99998094D01*
X161104819Y-98474285D02*
X161104819Y-99045713D01*
X161104819Y-98759999D02*
X160104819Y-98759999D01*
X160104819Y-98759999D02*
X160247676Y-98855237D01*
X160247676Y-98855237D02*
X160342914Y-98950475D01*
X160342914Y-98950475D02*
X160390533Y-99045713D01*
X131209580Y-71416666D02*
X131257200Y-71464285D01*
X131257200Y-71464285D02*
X131304819Y-71607142D01*
X131304819Y-71607142D02*
X131304819Y-71702380D01*
X131304819Y-71702380D02*
X131257200Y-71845237D01*
X131257200Y-71845237D02*
X131161961Y-71940475D01*
X131161961Y-71940475D02*
X131066723Y-71988094D01*
X131066723Y-71988094D02*
X130876247Y-72035713D01*
X130876247Y-72035713D02*
X130733390Y-72035713D01*
X130733390Y-72035713D02*
X130542914Y-71988094D01*
X130542914Y-71988094D02*
X130447676Y-71940475D01*
X130447676Y-71940475D02*
X130352438Y-71845237D01*
X130352438Y-71845237D02*
X130304819Y-71702380D01*
X130304819Y-71702380D02*
X130304819Y-71607142D01*
X130304819Y-71607142D02*
X130352438Y-71464285D01*
X130352438Y-71464285D02*
X130400057Y-71416666D01*
X130304819Y-70511904D02*
X130304819Y-70988094D01*
X130304819Y-70988094D02*
X130781009Y-71035713D01*
X130781009Y-71035713D02*
X130733390Y-70988094D01*
X130733390Y-70988094D02*
X130685771Y-70892856D01*
X130685771Y-70892856D02*
X130685771Y-70654761D01*
X130685771Y-70654761D02*
X130733390Y-70559523D01*
X130733390Y-70559523D02*
X130781009Y-70511904D01*
X130781009Y-70511904D02*
X130876247Y-70464285D01*
X130876247Y-70464285D02*
X131114342Y-70464285D01*
X131114342Y-70464285D02*
X131209580Y-70511904D01*
X131209580Y-70511904D02*
X131257200Y-70559523D01*
X131257200Y-70559523D02*
X131304819Y-70654761D01*
X131304819Y-70654761D02*
X131304819Y-70892856D01*
X131304819Y-70892856D02*
X131257200Y-70988094D01*
X131257200Y-70988094D02*
X131209580Y-71035713D01*
X143634580Y-88402857D02*
X143682200Y-88450476D01*
X143682200Y-88450476D02*
X143729819Y-88593333D01*
X143729819Y-88593333D02*
X143729819Y-88688571D01*
X143729819Y-88688571D02*
X143682200Y-88831428D01*
X143682200Y-88831428D02*
X143586961Y-88926666D01*
X143586961Y-88926666D02*
X143491723Y-88974285D01*
X143491723Y-88974285D02*
X143301247Y-89021904D01*
X143301247Y-89021904D02*
X143158390Y-89021904D01*
X143158390Y-89021904D02*
X142967914Y-88974285D01*
X142967914Y-88974285D02*
X142872676Y-88926666D01*
X142872676Y-88926666D02*
X142777438Y-88831428D01*
X142777438Y-88831428D02*
X142729819Y-88688571D01*
X142729819Y-88688571D02*
X142729819Y-88593333D01*
X142729819Y-88593333D02*
X142777438Y-88450476D01*
X142777438Y-88450476D02*
X142825057Y-88402857D01*
X143729819Y-87450476D02*
X143729819Y-88021904D01*
X143729819Y-87736190D02*
X142729819Y-87736190D01*
X142729819Y-87736190D02*
X142872676Y-87831428D01*
X142872676Y-87831428D02*
X142967914Y-87926666D01*
X142967914Y-87926666D02*
X143015533Y-88021904D01*
X142729819Y-86831428D02*
X142729819Y-86736190D01*
X142729819Y-86736190D02*
X142777438Y-86640952D01*
X142777438Y-86640952D02*
X142825057Y-86593333D01*
X142825057Y-86593333D02*
X142920295Y-86545714D01*
X142920295Y-86545714D02*
X143110771Y-86498095D01*
X143110771Y-86498095D02*
X143348866Y-86498095D01*
X143348866Y-86498095D02*
X143539342Y-86545714D01*
X143539342Y-86545714D02*
X143634580Y-86593333D01*
X143634580Y-86593333D02*
X143682200Y-86640952D01*
X143682200Y-86640952D02*
X143729819Y-86736190D01*
X143729819Y-86736190D02*
X143729819Y-86831428D01*
X143729819Y-86831428D02*
X143682200Y-86926666D01*
X143682200Y-86926666D02*
X143634580Y-86974285D01*
X143634580Y-86974285D02*
X143539342Y-87021904D01*
X143539342Y-87021904D02*
X143348866Y-87069523D01*
X143348866Y-87069523D02*
X143110771Y-87069523D01*
X143110771Y-87069523D02*
X142920295Y-87021904D01*
X142920295Y-87021904D02*
X142825057Y-86974285D01*
X142825057Y-86974285D02*
X142777438Y-86926666D01*
X142777438Y-86926666D02*
X142729819Y-86831428D01*
X143604819Y-79926666D02*
X143128628Y-80259999D01*
X143604819Y-80498094D02*
X142604819Y-80498094D01*
X142604819Y-80498094D02*
X142604819Y-80117142D01*
X142604819Y-80117142D02*
X142652438Y-80021904D01*
X142652438Y-80021904D02*
X142700057Y-79974285D01*
X142700057Y-79974285D02*
X142795295Y-79926666D01*
X142795295Y-79926666D02*
X142938152Y-79926666D01*
X142938152Y-79926666D02*
X143033390Y-79974285D01*
X143033390Y-79974285D02*
X143081009Y-80021904D01*
X143081009Y-80021904D02*
X143128628Y-80117142D01*
X143128628Y-80117142D02*
X143128628Y-80498094D01*
X143033390Y-79355237D02*
X142985771Y-79450475D01*
X142985771Y-79450475D02*
X142938152Y-79498094D01*
X142938152Y-79498094D02*
X142842914Y-79545713D01*
X142842914Y-79545713D02*
X142795295Y-79545713D01*
X142795295Y-79545713D02*
X142700057Y-79498094D01*
X142700057Y-79498094D02*
X142652438Y-79450475D01*
X142652438Y-79450475D02*
X142604819Y-79355237D01*
X142604819Y-79355237D02*
X142604819Y-79164761D01*
X142604819Y-79164761D02*
X142652438Y-79069523D01*
X142652438Y-79069523D02*
X142700057Y-79021904D01*
X142700057Y-79021904D02*
X142795295Y-78974285D01*
X142795295Y-78974285D02*
X142842914Y-78974285D01*
X142842914Y-78974285D02*
X142938152Y-79021904D01*
X142938152Y-79021904D02*
X142985771Y-79069523D01*
X142985771Y-79069523D02*
X143033390Y-79164761D01*
X143033390Y-79164761D02*
X143033390Y-79355237D01*
X143033390Y-79355237D02*
X143081009Y-79450475D01*
X143081009Y-79450475D02*
X143128628Y-79498094D01*
X143128628Y-79498094D02*
X143223866Y-79545713D01*
X143223866Y-79545713D02*
X143414342Y-79545713D01*
X143414342Y-79545713D02*
X143509580Y-79498094D01*
X143509580Y-79498094D02*
X143557200Y-79450475D01*
X143557200Y-79450475D02*
X143604819Y-79355237D01*
X143604819Y-79355237D02*
X143604819Y-79164761D01*
X143604819Y-79164761D02*
X143557200Y-79069523D01*
X143557200Y-79069523D02*
X143509580Y-79021904D01*
X143509580Y-79021904D02*
X143414342Y-78974285D01*
X143414342Y-78974285D02*
X143223866Y-78974285D01*
X143223866Y-78974285D02*
X143128628Y-79021904D01*
X143128628Y-79021904D02*
X143081009Y-79069523D01*
X143081009Y-79069523D02*
X143033390Y-79164761D01*
X158007142Y-102464819D02*
X157673809Y-101988628D01*
X157435714Y-102464819D02*
X157435714Y-101464819D01*
X157435714Y-101464819D02*
X157816666Y-101464819D01*
X157816666Y-101464819D02*
X157911904Y-101512438D01*
X157911904Y-101512438D02*
X157959523Y-101560057D01*
X157959523Y-101560057D02*
X158007142Y-101655295D01*
X158007142Y-101655295D02*
X158007142Y-101798152D01*
X158007142Y-101798152D02*
X157959523Y-101893390D01*
X157959523Y-101893390D02*
X157911904Y-101941009D01*
X157911904Y-101941009D02*
X157816666Y-101988628D01*
X157816666Y-101988628D02*
X157435714Y-101988628D01*
X158388095Y-101560057D02*
X158435714Y-101512438D01*
X158435714Y-101512438D02*
X158530952Y-101464819D01*
X158530952Y-101464819D02*
X158769047Y-101464819D01*
X158769047Y-101464819D02*
X158864285Y-101512438D01*
X158864285Y-101512438D02*
X158911904Y-101560057D01*
X158911904Y-101560057D02*
X158959523Y-101655295D01*
X158959523Y-101655295D02*
X158959523Y-101750533D01*
X158959523Y-101750533D02*
X158911904Y-101893390D01*
X158911904Y-101893390D02*
X158340476Y-102464819D01*
X158340476Y-102464819D02*
X158959523Y-102464819D01*
X159911904Y-102464819D02*
X159340476Y-102464819D01*
X159626190Y-102464819D02*
X159626190Y-101464819D01*
X159626190Y-101464819D02*
X159530952Y-101607676D01*
X159530952Y-101607676D02*
X159435714Y-101702914D01*
X159435714Y-101702914D02*
X159340476Y-101750533D01*
X165259580Y-79742857D02*
X165307200Y-79790476D01*
X165307200Y-79790476D02*
X165354819Y-79933333D01*
X165354819Y-79933333D02*
X165354819Y-80028571D01*
X165354819Y-80028571D02*
X165307200Y-80171428D01*
X165307200Y-80171428D02*
X165211961Y-80266666D01*
X165211961Y-80266666D02*
X165116723Y-80314285D01*
X165116723Y-80314285D02*
X164926247Y-80361904D01*
X164926247Y-80361904D02*
X164783390Y-80361904D01*
X164783390Y-80361904D02*
X164592914Y-80314285D01*
X164592914Y-80314285D02*
X164497676Y-80266666D01*
X164497676Y-80266666D02*
X164402438Y-80171428D01*
X164402438Y-80171428D02*
X164354819Y-80028571D01*
X164354819Y-80028571D02*
X164354819Y-79933333D01*
X164354819Y-79933333D02*
X164402438Y-79790476D01*
X164402438Y-79790476D02*
X164450057Y-79742857D01*
X165354819Y-78790476D02*
X165354819Y-79361904D01*
X165354819Y-79076190D02*
X164354819Y-79076190D01*
X164354819Y-79076190D02*
X164497676Y-79171428D01*
X164497676Y-79171428D02*
X164592914Y-79266666D01*
X164592914Y-79266666D02*
X164640533Y-79361904D01*
X164354819Y-78457142D02*
X164354819Y-77790476D01*
X164354819Y-77790476D02*
X165354819Y-78219047D01*
X153757142Y-103964819D02*
X153423809Y-103488628D01*
X153185714Y-103964819D02*
X153185714Y-102964819D01*
X153185714Y-102964819D02*
X153566666Y-102964819D01*
X153566666Y-102964819D02*
X153661904Y-103012438D01*
X153661904Y-103012438D02*
X153709523Y-103060057D01*
X153709523Y-103060057D02*
X153757142Y-103155295D01*
X153757142Y-103155295D02*
X153757142Y-103298152D01*
X153757142Y-103298152D02*
X153709523Y-103393390D01*
X153709523Y-103393390D02*
X153661904Y-103441009D01*
X153661904Y-103441009D02*
X153566666Y-103488628D01*
X153566666Y-103488628D02*
X153185714Y-103488628D01*
X154138095Y-103060057D02*
X154185714Y-103012438D01*
X154185714Y-103012438D02*
X154280952Y-102964819D01*
X154280952Y-102964819D02*
X154519047Y-102964819D01*
X154519047Y-102964819D02*
X154614285Y-103012438D01*
X154614285Y-103012438D02*
X154661904Y-103060057D01*
X154661904Y-103060057D02*
X154709523Y-103155295D01*
X154709523Y-103155295D02*
X154709523Y-103250533D01*
X154709523Y-103250533D02*
X154661904Y-103393390D01*
X154661904Y-103393390D02*
X154090476Y-103964819D01*
X154090476Y-103964819D02*
X154709523Y-103964819D01*
X155090476Y-103060057D02*
X155138095Y-103012438D01*
X155138095Y-103012438D02*
X155233333Y-102964819D01*
X155233333Y-102964819D02*
X155471428Y-102964819D01*
X155471428Y-102964819D02*
X155566666Y-103012438D01*
X155566666Y-103012438D02*
X155614285Y-103060057D01*
X155614285Y-103060057D02*
X155661904Y-103155295D01*
X155661904Y-103155295D02*
X155661904Y-103250533D01*
X155661904Y-103250533D02*
X155614285Y-103393390D01*
X155614285Y-103393390D02*
X155042857Y-103964819D01*
X155042857Y-103964819D02*
X155661904Y-103964819D01*
X166259580Y-95402857D02*
X166307200Y-95450476D01*
X166307200Y-95450476D02*
X166354819Y-95593333D01*
X166354819Y-95593333D02*
X166354819Y-95688571D01*
X166354819Y-95688571D02*
X166307200Y-95831428D01*
X166307200Y-95831428D02*
X166211961Y-95926666D01*
X166211961Y-95926666D02*
X166116723Y-95974285D01*
X166116723Y-95974285D02*
X165926247Y-96021904D01*
X165926247Y-96021904D02*
X165783390Y-96021904D01*
X165783390Y-96021904D02*
X165592914Y-95974285D01*
X165592914Y-95974285D02*
X165497676Y-95926666D01*
X165497676Y-95926666D02*
X165402438Y-95831428D01*
X165402438Y-95831428D02*
X165354819Y-95688571D01*
X165354819Y-95688571D02*
X165354819Y-95593333D01*
X165354819Y-95593333D02*
X165402438Y-95450476D01*
X165402438Y-95450476D02*
X165450057Y-95402857D01*
X166354819Y-94450476D02*
X166354819Y-95021904D01*
X166354819Y-94736190D02*
X165354819Y-94736190D01*
X165354819Y-94736190D02*
X165497676Y-94831428D01*
X165497676Y-94831428D02*
X165592914Y-94926666D01*
X165592914Y-94926666D02*
X165640533Y-95021904D01*
X166354819Y-93974285D02*
X166354819Y-93783809D01*
X166354819Y-93783809D02*
X166307200Y-93688571D01*
X166307200Y-93688571D02*
X166259580Y-93640952D01*
X166259580Y-93640952D02*
X166116723Y-93545714D01*
X166116723Y-93545714D02*
X165926247Y-93498095D01*
X165926247Y-93498095D02*
X165545295Y-93498095D01*
X165545295Y-93498095D02*
X165450057Y-93545714D01*
X165450057Y-93545714D02*
X165402438Y-93593333D01*
X165402438Y-93593333D02*
X165354819Y-93688571D01*
X165354819Y-93688571D02*
X165354819Y-93879047D01*
X165354819Y-93879047D02*
X165402438Y-93974285D01*
X165402438Y-93974285D02*
X165450057Y-94021904D01*
X165450057Y-94021904D02*
X165545295Y-94069523D01*
X165545295Y-94069523D02*
X165783390Y-94069523D01*
X165783390Y-94069523D02*
X165878628Y-94021904D01*
X165878628Y-94021904D02*
X165926247Y-93974285D01*
X165926247Y-93974285D02*
X165973866Y-93879047D01*
X165973866Y-93879047D02*
X165973866Y-93688571D01*
X165973866Y-93688571D02*
X165926247Y-93593333D01*
X165926247Y-93593333D02*
X165878628Y-93545714D01*
X165878628Y-93545714D02*
X165783390Y-93498095D01*
X130459580Y-85426666D02*
X130507200Y-85474285D01*
X130507200Y-85474285D02*
X130554819Y-85617142D01*
X130554819Y-85617142D02*
X130554819Y-85712380D01*
X130554819Y-85712380D02*
X130507200Y-85855237D01*
X130507200Y-85855237D02*
X130411961Y-85950475D01*
X130411961Y-85950475D02*
X130316723Y-85998094D01*
X130316723Y-85998094D02*
X130126247Y-86045713D01*
X130126247Y-86045713D02*
X129983390Y-86045713D01*
X129983390Y-86045713D02*
X129792914Y-85998094D01*
X129792914Y-85998094D02*
X129697676Y-85950475D01*
X129697676Y-85950475D02*
X129602438Y-85855237D01*
X129602438Y-85855237D02*
X129554819Y-85712380D01*
X129554819Y-85712380D02*
X129554819Y-85617142D01*
X129554819Y-85617142D02*
X129602438Y-85474285D01*
X129602438Y-85474285D02*
X129650057Y-85426666D01*
X129983390Y-84855237D02*
X129935771Y-84950475D01*
X129935771Y-84950475D02*
X129888152Y-84998094D01*
X129888152Y-84998094D02*
X129792914Y-85045713D01*
X129792914Y-85045713D02*
X129745295Y-85045713D01*
X129745295Y-85045713D02*
X129650057Y-84998094D01*
X129650057Y-84998094D02*
X129602438Y-84950475D01*
X129602438Y-84950475D02*
X129554819Y-84855237D01*
X129554819Y-84855237D02*
X129554819Y-84664761D01*
X129554819Y-84664761D02*
X129602438Y-84569523D01*
X129602438Y-84569523D02*
X129650057Y-84521904D01*
X129650057Y-84521904D02*
X129745295Y-84474285D01*
X129745295Y-84474285D02*
X129792914Y-84474285D01*
X129792914Y-84474285D02*
X129888152Y-84521904D01*
X129888152Y-84521904D02*
X129935771Y-84569523D01*
X129935771Y-84569523D02*
X129983390Y-84664761D01*
X129983390Y-84664761D02*
X129983390Y-84855237D01*
X129983390Y-84855237D02*
X130031009Y-84950475D01*
X130031009Y-84950475D02*
X130078628Y-84998094D01*
X130078628Y-84998094D02*
X130173866Y-85045713D01*
X130173866Y-85045713D02*
X130364342Y-85045713D01*
X130364342Y-85045713D02*
X130459580Y-84998094D01*
X130459580Y-84998094D02*
X130507200Y-84950475D01*
X130507200Y-84950475D02*
X130554819Y-84855237D01*
X130554819Y-84855237D02*
X130554819Y-84664761D01*
X130554819Y-84664761D02*
X130507200Y-84569523D01*
X130507200Y-84569523D02*
X130459580Y-84521904D01*
X130459580Y-84521904D02*
X130364342Y-84474285D01*
X130364342Y-84474285D02*
X130173866Y-84474285D01*
X130173866Y-84474285D02*
X130078628Y-84521904D01*
X130078628Y-84521904D02*
X130031009Y-84569523D01*
X130031009Y-84569523D02*
X129983390Y-84664761D01*
X109199580Y-96641666D02*
X109247200Y-96689285D01*
X109247200Y-96689285D02*
X109294819Y-96832142D01*
X109294819Y-96832142D02*
X109294819Y-96927380D01*
X109294819Y-96927380D02*
X109247200Y-97070237D01*
X109247200Y-97070237D02*
X109151961Y-97165475D01*
X109151961Y-97165475D02*
X109056723Y-97213094D01*
X109056723Y-97213094D02*
X108866247Y-97260713D01*
X108866247Y-97260713D02*
X108723390Y-97260713D01*
X108723390Y-97260713D02*
X108532914Y-97213094D01*
X108532914Y-97213094D02*
X108437676Y-97165475D01*
X108437676Y-97165475D02*
X108342438Y-97070237D01*
X108342438Y-97070237D02*
X108294819Y-96927380D01*
X108294819Y-96927380D02*
X108294819Y-96832142D01*
X108294819Y-96832142D02*
X108342438Y-96689285D01*
X108342438Y-96689285D02*
X108390057Y-96641666D01*
X109294819Y-95689285D02*
X109294819Y-96260713D01*
X109294819Y-95974999D02*
X108294819Y-95974999D01*
X108294819Y-95974999D02*
X108437676Y-96070237D01*
X108437676Y-96070237D02*
X108532914Y-96165475D01*
X108532914Y-96165475D02*
X108580533Y-96260713D01*
X116979819Y-86416666D02*
X116503628Y-86749999D01*
X116979819Y-86988094D02*
X115979819Y-86988094D01*
X115979819Y-86988094D02*
X115979819Y-86607142D01*
X115979819Y-86607142D02*
X116027438Y-86511904D01*
X116027438Y-86511904D02*
X116075057Y-86464285D01*
X116075057Y-86464285D02*
X116170295Y-86416666D01*
X116170295Y-86416666D02*
X116313152Y-86416666D01*
X116313152Y-86416666D02*
X116408390Y-86464285D01*
X116408390Y-86464285D02*
X116456009Y-86511904D01*
X116456009Y-86511904D02*
X116503628Y-86607142D01*
X116503628Y-86607142D02*
X116503628Y-86988094D01*
X116075057Y-86035713D02*
X116027438Y-85988094D01*
X116027438Y-85988094D02*
X115979819Y-85892856D01*
X115979819Y-85892856D02*
X115979819Y-85654761D01*
X115979819Y-85654761D02*
X116027438Y-85559523D01*
X116027438Y-85559523D02*
X116075057Y-85511904D01*
X116075057Y-85511904D02*
X116170295Y-85464285D01*
X116170295Y-85464285D02*
X116265533Y-85464285D01*
X116265533Y-85464285D02*
X116408390Y-85511904D01*
X116408390Y-85511904D02*
X116979819Y-86083332D01*
X116979819Y-86083332D02*
X116979819Y-85464285D01*
X122942319Y-82926666D02*
X122466128Y-83259999D01*
X122942319Y-83498094D02*
X121942319Y-83498094D01*
X121942319Y-83498094D02*
X121942319Y-83117142D01*
X121942319Y-83117142D02*
X121989938Y-83021904D01*
X121989938Y-83021904D02*
X122037557Y-82974285D01*
X122037557Y-82974285D02*
X122132795Y-82926666D01*
X122132795Y-82926666D02*
X122275652Y-82926666D01*
X122275652Y-82926666D02*
X122370890Y-82974285D01*
X122370890Y-82974285D02*
X122418509Y-83021904D01*
X122418509Y-83021904D02*
X122466128Y-83117142D01*
X122466128Y-83117142D02*
X122466128Y-83498094D01*
X121942319Y-82021904D02*
X121942319Y-82498094D01*
X121942319Y-82498094D02*
X122418509Y-82545713D01*
X122418509Y-82545713D02*
X122370890Y-82498094D01*
X122370890Y-82498094D02*
X122323271Y-82402856D01*
X122323271Y-82402856D02*
X122323271Y-82164761D01*
X122323271Y-82164761D02*
X122370890Y-82069523D01*
X122370890Y-82069523D02*
X122418509Y-82021904D01*
X122418509Y-82021904D02*
X122513747Y-81974285D01*
X122513747Y-81974285D02*
X122751842Y-81974285D01*
X122751842Y-81974285D02*
X122847080Y-82021904D01*
X122847080Y-82021904D02*
X122894700Y-82069523D01*
X122894700Y-82069523D02*
X122942319Y-82164761D01*
X122942319Y-82164761D02*
X122942319Y-82402856D01*
X122942319Y-82402856D02*
X122894700Y-82498094D01*
X122894700Y-82498094D02*
X122847080Y-82545713D01*
X175894642Y-99524819D02*
X175561309Y-99048628D01*
X175323214Y-99524819D02*
X175323214Y-98524819D01*
X175323214Y-98524819D02*
X175704166Y-98524819D01*
X175704166Y-98524819D02*
X175799404Y-98572438D01*
X175799404Y-98572438D02*
X175847023Y-98620057D01*
X175847023Y-98620057D02*
X175894642Y-98715295D01*
X175894642Y-98715295D02*
X175894642Y-98858152D01*
X175894642Y-98858152D02*
X175847023Y-98953390D01*
X175847023Y-98953390D02*
X175799404Y-99001009D01*
X175799404Y-99001009D02*
X175704166Y-99048628D01*
X175704166Y-99048628D02*
X175323214Y-99048628D01*
X176847023Y-99524819D02*
X176275595Y-99524819D01*
X176561309Y-99524819D02*
X176561309Y-98524819D01*
X176561309Y-98524819D02*
X176466071Y-98667676D01*
X176466071Y-98667676D02*
X176370833Y-98762914D01*
X176370833Y-98762914D02*
X176275595Y-98810533D01*
X177180357Y-98524819D02*
X177847023Y-98524819D01*
X177847023Y-98524819D02*
X177418452Y-99524819D01*
X118983333Y-84214819D02*
X118650000Y-83738628D01*
X118411905Y-84214819D02*
X118411905Y-83214819D01*
X118411905Y-83214819D02*
X118792857Y-83214819D01*
X118792857Y-83214819D02*
X118888095Y-83262438D01*
X118888095Y-83262438D02*
X118935714Y-83310057D01*
X118935714Y-83310057D02*
X118983333Y-83405295D01*
X118983333Y-83405295D02*
X118983333Y-83548152D01*
X118983333Y-83548152D02*
X118935714Y-83643390D01*
X118935714Y-83643390D02*
X118888095Y-83691009D01*
X118888095Y-83691009D02*
X118792857Y-83738628D01*
X118792857Y-83738628D02*
X118411905Y-83738628D01*
X119316667Y-83214819D02*
X119935714Y-83214819D01*
X119935714Y-83214819D02*
X119602381Y-83595771D01*
X119602381Y-83595771D02*
X119745238Y-83595771D01*
X119745238Y-83595771D02*
X119840476Y-83643390D01*
X119840476Y-83643390D02*
X119888095Y-83691009D01*
X119888095Y-83691009D02*
X119935714Y-83786247D01*
X119935714Y-83786247D02*
X119935714Y-84024342D01*
X119935714Y-84024342D02*
X119888095Y-84119580D01*
X119888095Y-84119580D02*
X119840476Y-84167200D01*
X119840476Y-84167200D02*
X119745238Y-84214819D01*
X119745238Y-84214819D02*
X119459524Y-84214819D01*
X119459524Y-84214819D02*
X119364286Y-84167200D01*
X119364286Y-84167200D02*
X119316667Y-84119580D01*
X94238095Y-72454819D02*
X94238095Y-71454819D01*
X94238095Y-71931009D02*
X94809523Y-71931009D01*
X94809523Y-72454819D02*
X94809523Y-71454819D01*
X95809523Y-72454819D02*
X95238095Y-72454819D01*
X95523809Y-72454819D02*
X95523809Y-71454819D01*
X95523809Y-71454819D02*
X95428571Y-71597676D01*
X95428571Y-71597676D02*
X95333333Y-71692914D01*
X95333333Y-71692914D02*
X95238095Y-71740533D01*
X122847080Y-87926666D02*
X122894700Y-87974285D01*
X122894700Y-87974285D02*
X122942319Y-88117142D01*
X122942319Y-88117142D02*
X122942319Y-88212380D01*
X122942319Y-88212380D02*
X122894700Y-88355237D01*
X122894700Y-88355237D02*
X122799461Y-88450475D01*
X122799461Y-88450475D02*
X122704223Y-88498094D01*
X122704223Y-88498094D02*
X122513747Y-88545713D01*
X122513747Y-88545713D02*
X122370890Y-88545713D01*
X122370890Y-88545713D02*
X122180414Y-88498094D01*
X122180414Y-88498094D02*
X122085176Y-88450475D01*
X122085176Y-88450475D02*
X121989938Y-88355237D01*
X121989938Y-88355237D02*
X121942319Y-88212380D01*
X121942319Y-88212380D02*
X121942319Y-88117142D01*
X121942319Y-88117142D02*
X121989938Y-87974285D01*
X121989938Y-87974285D02*
X122037557Y-87926666D01*
X121942319Y-87593332D02*
X121942319Y-86926666D01*
X121942319Y-86926666D02*
X122942319Y-87355237D01*
X130604819Y-79926666D02*
X130128628Y-80259999D01*
X130604819Y-80498094D02*
X129604819Y-80498094D01*
X129604819Y-80498094D02*
X129604819Y-80117142D01*
X129604819Y-80117142D02*
X129652438Y-80021904D01*
X129652438Y-80021904D02*
X129700057Y-79974285D01*
X129700057Y-79974285D02*
X129795295Y-79926666D01*
X129795295Y-79926666D02*
X129938152Y-79926666D01*
X129938152Y-79926666D02*
X130033390Y-79974285D01*
X130033390Y-79974285D02*
X130081009Y-80021904D01*
X130081009Y-80021904D02*
X130128628Y-80117142D01*
X130128628Y-80117142D02*
X130128628Y-80498094D01*
X129604819Y-79069523D02*
X129604819Y-79259999D01*
X129604819Y-79259999D02*
X129652438Y-79355237D01*
X129652438Y-79355237D02*
X129700057Y-79402856D01*
X129700057Y-79402856D02*
X129842914Y-79498094D01*
X129842914Y-79498094D02*
X130033390Y-79545713D01*
X130033390Y-79545713D02*
X130414342Y-79545713D01*
X130414342Y-79545713D02*
X130509580Y-79498094D01*
X130509580Y-79498094D02*
X130557200Y-79450475D01*
X130557200Y-79450475D02*
X130604819Y-79355237D01*
X130604819Y-79355237D02*
X130604819Y-79164761D01*
X130604819Y-79164761D02*
X130557200Y-79069523D01*
X130557200Y-79069523D02*
X130509580Y-79021904D01*
X130509580Y-79021904D02*
X130414342Y-78974285D01*
X130414342Y-78974285D02*
X130176247Y-78974285D01*
X130176247Y-78974285D02*
X130081009Y-79021904D01*
X130081009Y-79021904D02*
X130033390Y-79069523D01*
X130033390Y-79069523D02*
X129985771Y-79164761D01*
X129985771Y-79164761D02*
X129985771Y-79355237D01*
X129985771Y-79355237D02*
X130033390Y-79450475D01*
X130033390Y-79450475D02*
X130081009Y-79498094D01*
X130081009Y-79498094D02*
X130176247Y-79545713D01*
X199238095Y-108454819D02*
X199238095Y-107454819D01*
X199238095Y-107931009D02*
X199809523Y-107931009D01*
X199809523Y-108454819D02*
X199809523Y-107454819D01*
X200714285Y-107788152D02*
X200714285Y-108454819D01*
X200476190Y-107407200D02*
X200238095Y-108121485D01*
X200238095Y-108121485D02*
X200857142Y-108121485D01*
X143704819Y-82926666D02*
X143228628Y-83259999D01*
X143704819Y-83498094D02*
X142704819Y-83498094D01*
X142704819Y-83498094D02*
X142704819Y-83117142D01*
X142704819Y-83117142D02*
X142752438Y-83021904D01*
X142752438Y-83021904D02*
X142800057Y-82974285D01*
X142800057Y-82974285D02*
X142895295Y-82926666D01*
X142895295Y-82926666D02*
X143038152Y-82926666D01*
X143038152Y-82926666D02*
X143133390Y-82974285D01*
X143133390Y-82974285D02*
X143181009Y-83021904D01*
X143181009Y-83021904D02*
X143228628Y-83117142D01*
X143228628Y-83117142D02*
X143228628Y-83498094D01*
X143704819Y-82450475D02*
X143704819Y-82259999D01*
X143704819Y-82259999D02*
X143657200Y-82164761D01*
X143657200Y-82164761D02*
X143609580Y-82117142D01*
X143609580Y-82117142D02*
X143466723Y-82021904D01*
X143466723Y-82021904D02*
X143276247Y-81974285D01*
X143276247Y-81974285D02*
X142895295Y-81974285D01*
X142895295Y-81974285D02*
X142800057Y-82021904D01*
X142800057Y-82021904D02*
X142752438Y-82069523D01*
X142752438Y-82069523D02*
X142704819Y-82164761D01*
X142704819Y-82164761D02*
X142704819Y-82355237D01*
X142704819Y-82355237D02*
X142752438Y-82450475D01*
X142752438Y-82450475D02*
X142800057Y-82498094D01*
X142800057Y-82498094D02*
X142895295Y-82545713D01*
X142895295Y-82545713D02*
X143133390Y-82545713D01*
X143133390Y-82545713D02*
X143228628Y-82498094D01*
X143228628Y-82498094D02*
X143276247Y-82450475D01*
X143276247Y-82450475D02*
X143323866Y-82355237D01*
X143323866Y-82355237D02*
X143323866Y-82164761D01*
X143323866Y-82164761D02*
X143276247Y-82069523D01*
X143276247Y-82069523D02*
X143228628Y-82021904D01*
X143228628Y-82021904D02*
X143133390Y-81974285D01*
X167119642Y-72934819D02*
X166786309Y-72458628D01*
X166548214Y-72934819D02*
X166548214Y-71934819D01*
X166548214Y-71934819D02*
X166929166Y-71934819D01*
X166929166Y-71934819D02*
X167024404Y-71982438D01*
X167024404Y-71982438D02*
X167072023Y-72030057D01*
X167072023Y-72030057D02*
X167119642Y-72125295D01*
X167119642Y-72125295D02*
X167119642Y-72268152D01*
X167119642Y-72268152D02*
X167072023Y-72363390D01*
X167072023Y-72363390D02*
X167024404Y-72411009D01*
X167024404Y-72411009D02*
X166929166Y-72458628D01*
X166929166Y-72458628D02*
X166548214Y-72458628D01*
X168072023Y-72934819D02*
X167500595Y-72934819D01*
X167786309Y-72934819D02*
X167786309Y-71934819D01*
X167786309Y-71934819D02*
X167691071Y-72077676D01*
X167691071Y-72077676D02*
X167595833Y-72172914D01*
X167595833Y-72172914D02*
X167500595Y-72220533D01*
X168405357Y-71934819D02*
X169024404Y-71934819D01*
X169024404Y-71934819D02*
X168691071Y-72315771D01*
X168691071Y-72315771D02*
X168833928Y-72315771D01*
X168833928Y-72315771D02*
X168929166Y-72363390D01*
X168929166Y-72363390D02*
X168976785Y-72411009D01*
X168976785Y-72411009D02*
X169024404Y-72506247D01*
X169024404Y-72506247D02*
X169024404Y-72744342D01*
X169024404Y-72744342D02*
X168976785Y-72839580D01*
X168976785Y-72839580D02*
X168929166Y-72887200D01*
X168929166Y-72887200D02*
X168833928Y-72934819D01*
X168833928Y-72934819D02*
X168548214Y-72934819D01*
X168548214Y-72934819D02*
X168452976Y-72887200D01*
X168452976Y-72887200D02*
X168405357Y-72839580D01*
X154607319Y-79147857D02*
X154131128Y-79481190D01*
X154607319Y-79719285D02*
X153607319Y-79719285D01*
X153607319Y-79719285D02*
X153607319Y-79338333D01*
X153607319Y-79338333D02*
X153654938Y-79243095D01*
X153654938Y-79243095D02*
X153702557Y-79195476D01*
X153702557Y-79195476D02*
X153797795Y-79147857D01*
X153797795Y-79147857D02*
X153940652Y-79147857D01*
X153940652Y-79147857D02*
X154035890Y-79195476D01*
X154035890Y-79195476D02*
X154083509Y-79243095D01*
X154083509Y-79243095D02*
X154131128Y-79338333D01*
X154131128Y-79338333D02*
X154131128Y-79719285D01*
X154607319Y-78195476D02*
X154607319Y-78766904D01*
X154607319Y-78481190D02*
X153607319Y-78481190D01*
X153607319Y-78481190D02*
X153750176Y-78576428D01*
X153750176Y-78576428D02*
X153845414Y-78671666D01*
X153845414Y-78671666D02*
X153893033Y-78766904D01*
X153607319Y-77576428D02*
X153607319Y-77481190D01*
X153607319Y-77481190D02*
X153654938Y-77385952D01*
X153654938Y-77385952D02*
X153702557Y-77338333D01*
X153702557Y-77338333D02*
X153797795Y-77290714D01*
X153797795Y-77290714D02*
X153988271Y-77243095D01*
X153988271Y-77243095D02*
X154226366Y-77243095D01*
X154226366Y-77243095D02*
X154416842Y-77290714D01*
X154416842Y-77290714D02*
X154512080Y-77338333D01*
X154512080Y-77338333D02*
X154559700Y-77385952D01*
X154559700Y-77385952D02*
X154607319Y-77481190D01*
X154607319Y-77481190D02*
X154607319Y-77576428D01*
X154607319Y-77576428D02*
X154559700Y-77671666D01*
X154559700Y-77671666D02*
X154512080Y-77719285D01*
X154512080Y-77719285D02*
X154416842Y-77766904D01*
X154416842Y-77766904D02*
X154226366Y-77814523D01*
X154226366Y-77814523D02*
X153988271Y-77814523D01*
X153988271Y-77814523D02*
X153797795Y-77766904D01*
X153797795Y-77766904D02*
X153702557Y-77719285D01*
X153702557Y-77719285D02*
X153654938Y-77671666D01*
X153654938Y-77671666D02*
X153607319Y-77576428D01*
X143634580Y-85426666D02*
X143682200Y-85474285D01*
X143682200Y-85474285D02*
X143729819Y-85617142D01*
X143729819Y-85617142D02*
X143729819Y-85712380D01*
X143729819Y-85712380D02*
X143682200Y-85855237D01*
X143682200Y-85855237D02*
X143586961Y-85950475D01*
X143586961Y-85950475D02*
X143491723Y-85998094D01*
X143491723Y-85998094D02*
X143301247Y-86045713D01*
X143301247Y-86045713D02*
X143158390Y-86045713D01*
X143158390Y-86045713D02*
X142967914Y-85998094D01*
X142967914Y-85998094D02*
X142872676Y-85950475D01*
X142872676Y-85950475D02*
X142777438Y-85855237D01*
X142777438Y-85855237D02*
X142729819Y-85712380D01*
X142729819Y-85712380D02*
X142729819Y-85617142D01*
X142729819Y-85617142D02*
X142777438Y-85474285D01*
X142777438Y-85474285D02*
X142825057Y-85426666D01*
X143729819Y-84950475D02*
X143729819Y-84759999D01*
X143729819Y-84759999D02*
X143682200Y-84664761D01*
X143682200Y-84664761D02*
X143634580Y-84617142D01*
X143634580Y-84617142D02*
X143491723Y-84521904D01*
X143491723Y-84521904D02*
X143301247Y-84474285D01*
X143301247Y-84474285D02*
X142920295Y-84474285D01*
X142920295Y-84474285D02*
X142825057Y-84521904D01*
X142825057Y-84521904D02*
X142777438Y-84569523D01*
X142777438Y-84569523D02*
X142729819Y-84664761D01*
X142729819Y-84664761D02*
X142729819Y-84855237D01*
X142729819Y-84855237D02*
X142777438Y-84950475D01*
X142777438Y-84950475D02*
X142825057Y-84998094D01*
X142825057Y-84998094D02*
X142920295Y-85045713D01*
X142920295Y-85045713D02*
X143158390Y-85045713D01*
X143158390Y-85045713D02*
X143253628Y-84998094D01*
X143253628Y-84998094D02*
X143301247Y-84950475D01*
X143301247Y-84950475D02*
X143348866Y-84855237D01*
X143348866Y-84855237D02*
X143348866Y-84664761D01*
X143348866Y-84664761D02*
X143301247Y-84569523D01*
X143301247Y-84569523D02*
X143253628Y-84521904D01*
X143253628Y-84521904D02*
X143158390Y-84474285D01*
X154389580Y-76357857D02*
X154437200Y-76405476D01*
X154437200Y-76405476D02*
X154484819Y-76548333D01*
X154484819Y-76548333D02*
X154484819Y-76643571D01*
X154484819Y-76643571D02*
X154437200Y-76786428D01*
X154437200Y-76786428D02*
X154341961Y-76881666D01*
X154341961Y-76881666D02*
X154246723Y-76929285D01*
X154246723Y-76929285D02*
X154056247Y-76976904D01*
X154056247Y-76976904D02*
X153913390Y-76976904D01*
X153913390Y-76976904D02*
X153722914Y-76929285D01*
X153722914Y-76929285D02*
X153627676Y-76881666D01*
X153627676Y-76881666D02*
X153532438Y-76786428D01*
X153532438Y-76786428D02*
X153484819Y-76643571D01*
X153484819Y-76643571D02*
X153484819Y-76548333D01*
X153484819Y-76548333D02*
X153532438Y-76405476D01*
X153532438Y-76405476D02*
X153580057Y-76357857D01*
X154484819Y-75405476D02*
X154484819Y-75976904D01*
X154484819Y-75691190D02*
X153484819Y-75691190D01*
X153484819Y-75691190D02*
X153627676Y-75786428D01*
X153627676Y-75786428D02*
X153722914Y-75881666D01*
X153722914Y-75881666D02*
X153770533Y-75976904D01*
X153580057Y-75024523D02*
X153532438Y-74976904D01*
X153532438Y-74976904D02*
X153484819Y-74881666D01*
X153484819Y-74881666D02*
X153484819Y-74643571D01*
X153484819Y-74643571D02*
X153532438Y-74548333D01*
X153532438Y-74548333D02*
X153580057Y-74500714D01*
X153580057Y-74500714D02*
X153675295Y-74453095D01*
X153675295Y-74453095D02*
X153770533Y-74453095D01*
X153770533Y-74453095D02*
X153913390Y-74500714D01*
X153913390Y-74500714D02*
X154484819Y-75072142D01*
X154484819Y-75072142D02*
X154484819Y-74453095D01*
X116884580Y-88916666D02*
X116932200Y-88964285D01*
X116932200Y-88964285D02*
X116979819Y-89107142D01*
X116979819Y-89107142D02*
X116979819Y-89202380D01*
X116979819Y-89202380D02*
X116932200Y-89345237D01*
X116932200Y-89345237D02*
X116836961Y-89440475D01*
X116836961Y-89440475D02*
X116741723Y-89488094D01*
X116741723Y-89488094D02*
X116551247Y-89535713D01*
X116551247Y-89535713D02*
X116408390Y-89535713D01*
X116408390Y-89535713D02*
X116217914Y-89488094D01*
X116217914Y-89488094D02*
X116122676Y-89440475D01*
X116122676Y-89440475D02*
X116027438Y-89345237D01*
X116027438Y-89345237D02*
X115979819Y-89202380D01*
X115979819Y-89202380D02*
X115979819Y-89107142D01*
X115979819Y-89107142D02*
X116027438Y-88964285D01*
X116027438Y-88964285D02*
X116075057Y-88916666D01*
X115979819Y-88583332D02*
X115979819Y-87964285D01*
X115979819Y-87964285D02*
X116360771Y-88297618D01*
X116360771Y-88297618D02*
X116360771Y-88154761D01*
X116360771Y-88154761D02*
X116408390Y-88059523D01*
X116408390Y-88059523D02*
X116456009Y-88011904D01*
X116456009Y-88011904D02*
X116551247Y-87964285D01*
X116551247Y-87964285D02*
X116789342Y-87964285D01*
X116789342Y-87964285D02*
X116884580Y-88011904D01*
X116884580Y-88011904D02*
X116932200Y-88059523D01*
X116932200Y-88059523D02*
X116979819Y-88154761D01*
X116979819Y-88154761D02*
X116979819Y-88440475D01*
X116979819Y-88440475D02*
X116932200Y-88535713D01*
X116932200Y-88535713D02*
X116884580Y-88583332D01*
X185274819Y-89642857D02*
X184798628Y-89976190D01*
X185274819Y-90214285D02*
X184274819Y-90214285D01*
X184274819Y-90214285D02*
X184274819Y-89833333D01*
X184274819Y-89833333D02*
X184322438Y-89738095D01*
X184322438Y-89738095D02*
X184370057Y-89690476D01*
X184370057Y-89690476D02*
X184465295Y-89642857D01*
X184465295Y-89642857D02*
X184608152Y-89642857D01*
X184608152Y-89642857D02*
X184703390Y-89690476D01*
X184703390Y-89690476D02*
X184751009Y-89738095D01*
X184751009Y-89738095D02*
X184798628Y-89833333D01*
X184798628Y-89833333D02*
X184798628Y-90214285D01*
X185274819Y-88690476D02*
X185274819Y-89261904D01*
X185274819Y-88976190D02*
X184274819Y-88976190D01*
X184274819Y-88976190D02*
X184417676Y-89071428D01*
X184417676Y-89071428D02*
X184512914Y-89166666D01*
X184512914Y-89166666D02*
X184560533Y-89261904D01*
X184274819Y-87833333D02*
X184274819Y-88023809D01*
X184274819Y-88023809D02*
X184322438Y-88119047D01*
X184322438Y-88119047D02*
X184370057Y-88166666D01*
X184370057Y-88166666D02*
X184512914Y-88261904D01*
X184512914Y-88261904D02*
X184703390Y-88309523D01*
X184703390Y-88309523D02*
X185084342Y-88309523D01*
X185084342Y-88309523D02*
X185179580Y-88261904D01*
X185179580Y-88261904D02*
X185227200Y-88214285D01*
X185227200Y-88214285D02*
X185274819Y-88119047D01*
X185274819Y-88119047D02*
X185274819Y-87928571D01*
X185274819Y-87928571D02*
X185227200Y-87833333D01*
X185227200Y-87833333D02*
X185179580Y-87785714D01*
X185179580Y-87785714D02*
X185084342Y-87738095D01*
X185084342Y-87738095D02*
X184846247Y-87738095D01*
X184846247Y-87738095D02*
X184751009Y-87785714D01*
X184751009Y-87785714D02*
X184703390Y-87833333D01*
X184703390Y-87833333D02*
X184655771Y-87928571D01*
X184655771Y-87928571D02*
X184655771Y-88119047D01*
X184655771Y-88119047D02*
X184703390Y-88214285D01*
X184703390Y-88214285D02*
X184751009Y-88261904D01*
X184751009Y-88261904D02*
X184846247Y-88309523D01*
D11*
X166660237Y-86869318D02*
X166660237Y-85599318D01*
X167990714Y-86748365D02*
X167930238Y-86808842D01*
X167930238Y-86808842D02*
X167748809Y-86869318D01*
X167748809Y-86869318D02*
X167627857Y-86869318D01*
X167627857Y-86869318D02*
X167446428Y-86808842D01*
X167446428Y-86808842D02*
X167325476Y-86687889D01*
X167325476Y-86687889D02*
X167264999Y-86566937D01*
X167264999Y-86566937D02*
X167204523Y-86325032D01*
X167204523Y-86325032D02*
X167204523Y-86143603D01*
X167204523Y-86143603D02*
X167264999Y-85901699D01*
X167264999Y-85901699D02*
X167325476Y-85780746D01*
X167325476Y-85780746D02*
X167446428Y-85659794D01*
X167446428Y-85659794D02*
X167627857Y-85599318D01*
X167627857Y-85599318D02*
X167748809Y-85599318D01*
X167748809Y-85599318D02*
X167930238Y-85659794D01*
X167930238Y-85659794D02*
X167990714Y-85720270D01*
X169200238Y-86869318D02*
X168474523Y-86869318D01*
X168837380Y-86869318D02*
X168837380Y-85599318D01*
X168837380Y-85599318D02*
X168716428Y-85780746D01*
X168716428Y-85780746D02*
X168595476Y-85901699D01*
X168595476Y-85901699D02*
X168474523Y-85962175D01*
D10*
X116884580Y-91416666D02*
X116932200Y-91464285D01*
X116932200Y-91464285D02*
X116979819Y-91607142D01*
X116979819Y-91607142D02*
X116979819Y-91702380D01*
X116979819Y-91702380D02*
X116932200Y-91845237D01*
X116932200Y-91845237D02*
X116836961Y-91940475D01*
X116836961Y-91940475D02*
X116741723Y-91988094D01*
X116741723Y-91988094D02*
X116551247Y-92035713D01*
X116551247Y-92035713D02*
X116408390Y-92035713D01*
X116408390Y-92035713D02*
X116217914Y-91988094D01*
X116217914Y-91988094D02*
X116122676Y-91940475D01*
X116122676Y-91940475D02*
X116027438Y-91845237D01*
X116027438Y-91845237D02*
X115979819Y-91702380D01*
X115979819Y-91702380D02*
X115979819Y-91607142D01*
X115979819Y-91607142D02*
X116027438Y-91464285D01*
X116027438Y-91464285D02*
X116075057Y-91416666D01*
X116313152Y-90559523D02*
X116979819Y-90559523D01*
X115932200Y-90797618D02*
X116646485Y-91035713D01*
X116646485Y-91035713D02*
X116646485Y-90416666D01*
X167007142Y-69044580D02*
X166959523Y-69092200D01*
X166959523Y-69092200D02*
X166816666Y-69139819D01*
X166816666Y-69139819D02*
X166721428Y-69139819D01*
X166721428Y-69139819D02*
X166578571Y-69092200D01*
X166578571Y-69092200D02*
X166483333Y-68996961D01*
X166483333Y-68996961D02*
X166435714Y-68901723D01*
X166435714Y-68901723D02*
X166388095Y-68711247D01*
X166388095Y-68711247D02*
X166388095Y-68568390D01*
X166388095Y-68568390D02*
X166435714Y-68377914D01*
X166435714Y-68377914D02*
X166483333Y-68282676D01*
X166483333Y-68282676D02*
X166578571Y-68187438D01*
X166578571Y-68187438D02*
X166721428Y-68139819D01*
X166721428Y-68139819D02*
X166816666Y-68139819D01*
X166816666Y-68139819D02*
X166959523Y-68187438D01*
X166959523Y-68187438D02*
X167007142Y-68235057D01*
X167388095Y-68235057D02*
X167435714Y-68187438D01*
X167435714Y-68187438D02*
X167530952Y-68139819D01*
X167530952Y-68139819D02*
X167769047Y-68139819D01*
X167769047Y-68139819D02*
X167864285Y-68187438D01*
X167864285Y-68187438D02*
X167911904Y-68235057D01*
X167911904Y-68235057D02*
X167959523Y-68330295D01*
X167959523Y-68330295D02*
X167959523Y-68425533D01*
X167959523Y-68425533D02*
X167911904Y-68568390D01*
X167911904Y-68568390D02*
X167340476Y-69139819D01*
X167340476Y-69139819D02*
X167959523Y-69139819D01*
X168292857Y-68139819D02*
X168911904Y-68139819D01*
X168911904Y-68139819D02*
X168578571Y-68520771D01*
X168578571Y-68520771D02*
X168721428Y-68520771D01*
X168721428Y-68520771D02*
X168816666Y-68568390D01*
X168816666Y-68568390D02*
X168864285Y-68616009D01*
X168864285Y-68616009D02*
X168911904Y-68711247D01*
X168911904Y-68711247D02*
X168911904Y-68949342D01*
X168911904Y-68949342D02*
X168864285Y-69044580D01*
X168864285Y-69044580D02*
X168816666Y-69092200D01*
X168816666Y-69092200D02*
X168721428Y-69139819D01*
X168721428Y-69139819D02*
X168435714Y-69139819D01*
X168435714Y-69139819D02*
X168340476Y-69092200D01*
X168340476Y-69092200D02*
X168292857Y-69044580D01*
X165259580Y-77042857D02*
X165307200Y-77090476D01*
X165307200Y-77090476D02*
X165354819Y-77233333D01*
X165354819Y-77233333D02*
X165354819Y-77328571D01*
X165354819Y-77328571D02*
X165307200Y-77471428D01*
X165307200Y-77471428D02*
X165211961Y-77566666D01*
X165211961Y-77566666D02*
X165116723Y-77614285D01*
X165116723Y-77614285D02*
X164926247Y-77661904D01*
X164926247Y-77661904D02*
X164783390Y-77661904D01*
X164783390Y-77661904D02*
X164592914Y-77614285D01*
X164592914Y-77614285D02*
X164497676Y-77566666D01*
X164497676Y-77566666D02*
X164402438Y-77471428D01*
X164402438Y-77471428D02*
X164354819Y-77328571D01*
X164354819Y-77328571D02*
X164354819Y-77233333D01*
X164354819Y-77233333D02*
X164402438Y-77090476D01*
X164402438Y-77090476D02*
X164450057Y-77042857D01*
X165354819Y-76090476D02*
X165354819Y-76661904D01*
X165354819Y-76376190D02*
X164354819Y-76376190D01*
X164354819Y-76376190D02*
X164497676Y-76471428D01*
X164497676Y-76471428D02*
X164592914Y-76566666D01*
X164592914Y-76566666D02*
X164640533Y-76661904D01*
X164783390Y-75519047D02*
X164735771Y-75614285D01*
X164735771Y-75614285D02*
X164688152Y-75661904D01*
X164688152Y-75661904D02*
X164592914Y-75709523D01*
X164592914Y-75709523D02*
X164545295Y-75709523D01*
X164545295Y-75709523D02*
X164450057Y-75661904D01*
X164450057Y-75661904D02*
X164402438Y-75614285D01*
X164402438Y-75614285D02*
X164354819Y-75519047D01*
X164354819Y-75519047D02*
X164354819Y-75328571D01*
X164354819Y-75328571D02*
X164402438Y-75233333D01*
X164402438Y-75233333D02*
X164450057Y-75185714D01*
X164450057Y-75185714D02*
X164545295Y-75138095D01*
X164545295Y-75138095D02*
X164592914Y-75138095D01*
X164592914Y-75138095D02*
X164688152Y-75185714D01*
X164688152Y-75185714D02*
X164735771Y-75233333D01*
X164735771Y-75233333D02*
X164783390Y-75328571D01*
X164783390Y-75328571D02*
X164783390Y-75519047D01*
X164783390Y-75519047D02*
X164831009Y-75614285D01*
X164831009Y-75614285D02*
X164878628Y-75661904D01*
X164878628Y-75661904D02*
X164973866Y-75709523D01*
X164973866Y-75709523D02*
X165164342Y-75709523D01*
X165164342Y-75709523D02*
X165259580Y-75661904D01*
X165259580Y-75661904D02*
X165307200Y-75614285D01*
X165307200Y-75614285D02*
X165354819Y-75519047D01*
X165354819Y-75519047D02*
X165354819Y-75328571D01*
X165354819Y-75328571D02*
X165307200Y-75233333D01*
X165307200Y-75233333D02*
X165259580Y-75185714D01*
X165259580Y-75185714D02*
X165164342Y-75138095D01*
X165164342Y-75138095D02*
X164973866Y-75138095D01*
X164973866Y-75138095D02*
X164878628Y-75185714D01*
X164878628Y-75185714D02*
X164831009Y-75233333D01*
X164831009Y-75233333D02*
X164783390Y-75328571D01*
X157544642Y-86109819D02*
X157211309Y-85633628D01*
X156973214Y-86109819D02*
X156973214Y-85109819D01*
X156973214Y-85109819D02*
X157354166Y-85109819D01*
X157354166Y-85109819D02*
X157449404Y-85157438D01*
X157449404Y-85157438D02*
X157497023Y-85205057D01*
X157497023Y-85205057D02*
X157544642Y-85300295D01*
X157544642Y-85300295D02*
X157544642Y-85443152D01*
X157544642Y-85443152D02*
X157497023Y-85538390D01*
X157497023Y-85538390D02*
X157449404Y-85586009D01*
X157449404Y-85586009D02*
X157354166Y-85633628D01*
X157354166Y-85633628D02*
X156973214Y-85633628D01*
X158497023Y-86109819D02*
X157925595Y-86109819D01*
X158211309Y-86109819D02*
X158211309Y-85109819D01*
X158211309Y-85109819D02*
X158116071Y-85252676D01*
X158116071Y-85252676D02*
X158020833Y-85347914D01*
X158020833Y-85347914D02*
X157925595Y-85395533D01*
X159354166Y-85443152D02*
X159354166Y-86109819D01*
X159116071Y-85062200D02*
X158877976Y-85776485D01*
X158877976Y-85776485D02*
X159497023Y-85776485D01*
X161332142Y-69859580D02*
X161284523Y-69907200D01*
X161284523Y-69907200D02*
X161141666Y-69954819D01*
X161141666Y-69954819D02*
X161046428Y-69954819D01*
X161046428Y-69954819D02*
X160903571Y-69907200D01*
X160903571Y-69907200D02*
X160808333Y-69811961D01*
X160808333Y-69811961D02*
X160760714Y-69716723D01*
X160760714Y-69716723D02*
X160713095Y-69526247D01*
X160713095Y-69526247D02*
X160713095Y-69383390D01*
X160713095Y-69383390D02*
X160760714Y-69192914D01*
X160760714Y-69192914D02*
X160808333Y-69097676D01*
X160808333Y-69097676D02*
X160903571Y-69002438D01*
X160903571Y-69002438D02*
X161046428Y-68954819D01*
X161046428Y-68954819D02*
X161141666Y-68954819D01*
X161141666Y-68954819D02*
X161284523Y-69002438D01*
X161284523Y-69002438D02*
X161332142Y-69050057D01*
X162284523Y-69954819D02*
X161713095Y-69954819D01*
X161998809Y-69954819D02*
X161998809Y-68954819D01*
X161998809Y-68954819D02*
X161903571Y-69097676D01*
X161903571Y-69097676D02*
X161808333Y-69192914D01*
X161808333Y-69192914D02*
X161713095Y-69240533D01*
X163141666Y-69288152D02*
X163141666Y-69954819D01*
X162903571Y-68907200D02*
X162665476Y-69621485D01*
X162665476Y-69621485D02*
X163284523Y-69621485D01*
X160657142Y-79754819D02*
X160323809Y-79278628D01*
X160085714Y-79754819D02*
X160085714Y-78754819D01*
X160085714Y-78754819D02*
X160466666Y-78754819D01*
X160466666Y-78754819D02*
X160561904Y-78802438D01*
X160561904Y-78802438D02*
X160609523Y-78850057D01*
X160609523Y-78850057D02*
X160657142Y-78945295D01*
X160657142Y-78945295D02*
X160657142Y-79088152D01*
X160657142Y-79088152D02*
X160609523Y-79183390D01*
X160609523Y-79183390D02*
X160561904Y-79231009D01*
X160561904Y-79231009D02*
X160466666Y-79278628D01*
X160466666Y-79278628D02*
X160085714Y-79278628D01*
X161609523Y-79754819D02*
X161038095Y-79754819D01*
X161323809Y-79754819D02*
X161323809Y-78754819D01*
X161323809Y-78754819D02*
X161228571Y-78897676D01*
X161228571Y-78897676D02*
X161133333Y-78992914D01*
X161133333Y-78992914D02*
X161038095Y-79040533D01*
X162561904Y-79754819D02*
X161990476Y-79754819D01*
X162276190Y-79754819D02*
X162276190Y-78754819D01*
X162276190Y-78754819D02*
X162180952Y-78897676D01*
X162180952Y-78897676D02*
X162085714Y-78992914D01*
X162085714Y-78992914D02*
X161990476Y-79040533D01*
X154369580Y-73637857D02*
X154417200Y-73685476D01*
X154417200Y-73685476D02*
X154464819Y-73828333D01*
X154464819Y-73828333D02*
X154464819Y-73923571D01*
X154464819Y-73923571D02*
X154417200Y-74066428D01*
X154417200Y-74066428D02*
X154321961Y-74161666D01*
X154321961Y-74161666D02*
X154226723Y-74209285D01*
X154226723Y-74209285D02*
X154036247Y-74256904D01*
X154036247Y-74256904D02*
X153893390Y-74256904D01*
X153893390Y-74256904D02*
X153702914Y-74209285D01*
X153702914Y-74209285D02*
X153607676Y-74161666D01*
X153607676Y-74161666D02*
X153512438Y-74066428D01*
X153512438Y-74066428D02*
X153464819Y-73923571D01*
X153464819Y-73923571D02*
X153464819Y-73828333D01*
X153464819Y-73828333D02*
X153512438Y-73685476D01*
X153512438Y-73685476D02*
X153560057Y-73637857D01*
X154464819Y-72685476D02*
X154464819Y-73256904D01*
X154464819Y-72971190D02*
X153464819Y-72971190D01*
X153464819Y-72971190D02*
X153607676Y-73066428D01*
X153607676Y-73066428D02*
X153702914Y-73161666D01*
X153702914Y-73161666D02*
X153750533Y-73256904D01*
X153464819Y-72352142D02*
X153464819Y-71733095D01*
X153464819Y-71733095D02*
X153845771Y-72066428D01*
X153845771Y-72066428D02*
X153845771Y-71923571D01*
X153845771Y-71923571D02*
X153893390Y-71828333D01*
X153893390Y-71828333D02*
X153941009Y-71780714D01*
X153941009Y-71780714D02*
X154036247Y-71733095D01*
X154036247Y-71733095D02*
X154274342Y-71733095D01*
X154274342Y-71733095D02*
X154369580Y-71780714D01*
X154369580Y-71780714D02*
X154417200Y-71828333D01*
X154417200Y-71828333D02*
X154464819Y-71923571D01*
X154464819Y-71923571D02*
X154464819Y-72209285D01*
X154464819Y-72209285D02*
X154417200Y-72304523D01*
X154417200Y-72304523D02*
X154369580Y-72352142D01*
X111379580Y-79666666D02*
X111427200Y-79714285D01*
X111427200Y-79714285D02*
X111474819Y-79857142D01*
X111474819Y-79857142D02*
X111474819Y-79952380D01*
X111474819Y-79952380D02*
X111427200Y-80095237D01*
X111427200Y-80095237D02*
X111331961Y-80190475D01*
X111331961Y-80190475D02*
X111236723Y-80238094D01*
X111236723Y-80238094D02*
X111046247Y-80285713D01*
X111046247Y-80285713D02*
X110903390Y-80285713D01*
X110903390Y-80285713D02*
X110712914Y-80238094D01*
X110712914Y-80238094D02*
X110617676Y-80190475D01*
X110617676Y-80190475D02*
X110522438Y-80095237D01*
X110522438Y-80095237D02*
X110474819Y-79952380D01*
X110474819Y-79952380D02*
X110474819Y-79857142D01*
X110474819Y-79857142D02*
X110522438Y-79714285D01*
X110522438Y-79714285D02*
X110570057Y-79666666D01*
X110570057Y-79285713D02*
X110522438Y-79238094D01*
X110522438Y-79238094D02*
X110474819Y-79142856D01*
X110474819Y-79142856D02*
X110474819Y-78904761D01*
X110474819Y-78904761D02*
X110522438Y-78809523D01*
X110522438Y-78809523D02*
X110570057Y-78761904D01*
X110570057Y-78761904D02*
X110665295Y-78714285D01*
X110665295Y-78714285D02*
X110760533Y-78714285D01*
X110760533Y-78714285D02*
X110903390Y-78761904D01*
X110903390Y-78761904D02*
X111474819Y-79333332D01*
X111474819Y-79333332D02*
X111474819Y-78714285D01*
D12*
%TO.C,R4*%
X126252064Y-78850000D02*
X124797936Y-78850000D01*
X126252064Y-80670000D02*
X124797936Y-80670000D01*
%TO.C,R18*%
X177165000Y-94402064D02*
X177165000Y-92947936D01*
X178985000Y-94402064D02*
X178985000Y-92947936D01*
%TO.C,R7*%
X133789564Y-81850000D02*
X132335436Y-81850000D01*
X133789564Y-83670000D02*
X132335436Y-83670000D01*
%TO.C,C15*%
X161315000Y-84148748D02*
X161315000Y-85571252D01*
X163135000Y-84148748D02*
X163135000Y-85571252D01*
%TO.C,R19*%
X161922936Y-90425000D02*
X163377064Y-90425000D01*
X161922936Y-92245000D02*
X163377064Y-92245000D01*
%TO.C,R1*%
X112360000Y-81935436D02*
X112360000Y-83389564D01*
X114180000Y-81935436D02*
X114180000Y-83389564D01*
%TO.C,R12*%
X161310436Y-73340000D02*
X162764564Y-73340000D01*
X161310436Y-75160000D02*
X162764564Y-75160000D01*
%TO.C,C6*%
X126173752Y-84350000D02*
X124751248Y-84350000D01*
X126173752Y-86170000D02*
X124751248Y-86170000D01*
%TO.C,R20*%
X164740000Y-100599564D02*
X164740000Y-99145436D01*
X166560000Y-100599564D02*
X166560000Y-99145436D01*
%TO.C,D1*%
X161490000Y-98655000D02*
X161490000Y-100065000D01*
X162150000Y-100065000D02*
X161490000Y-100065000D01*
X163810000Y-98655000D02*
X163810000Y-100065000D01*
X163810000Y-100065000D02*
X163150000Y-100065000D01*
X164120000Y-98525000D02*
X163790000Y-98285000D01*
X164120000Y-98045000D01*
X164120000Y-98525000D01*
G36*
X164120000Y-98525000D02*
G01*
X163790000Y-98285000D01*
X164120000Y-98045000D01*
X164120000Y-98525000D01*
G37*
%TO.C,C5*%
X131840000Y-70538748D02*
X131840000Y-71961252D01*
X133660000Y-70538748D02*
X133660000Y-71961252D01*
%TO.C,C10*%
X139588748Y-86850000D02*
X141011252Y-86850000D01*
X139588748Y-88670000D02*
X141011252Y-88670000D01*
%TO.C,R8*%
X139385436Y-78850000D02*
X140839564Y-78850000D01*
X139385436Y-80670000D02*
X140839564Y-80670000D01*
%TO.C,R21*%
X157740000Y-99524564D02*
X157740000Y-98070436D01*
X159560000Y-99524564D02*
X159560000Y-98070436D01*
%TO.C,C17*%
X167038748Y-78960000D02*
X168461252Y-78960000D01*
X167038748Y-80780000D02*
X168461252Y-80780000D01*
%TO.C,R22*%
X153490000Y-99532936D02*
X153490000Y-100987064D01*
X155310000Y-99532936D02*
X155310000Y-100987064D01*
%TO.C,C19*%
X161938748Y-93925000D02*
X163361252Y-93925000D01*
X161938748Y-95745000D02*
X163361252Y-95745000D01*
%TO.C,C8*%
X133836252Y-84350000D02*
X132413748Y-84350000D01*
X133836252Y-86170000D02*
X132413748Y-86170000D01*
%TO.C,C1*%
X109780000Y-97186252D02*
X109780000Y-95763748D01*
X111600000Y-97186252D02*
X111600000Y-95763748D01*
%TO.C,R2*%
X114289564Y-85340000D02*
X112835436Y-85340000D01*
X114289564Y-87160000D02*
X112835436Y-87160000D01*
%TO.C,R5*%
X126127064Y-81850000D02*
X124672936Y-81850000D01*
X126127064Y-83670000D02*
X124672936Y-83670000D01*
%TO.C,R17*%
X177264564Y-96340000D02*
X175810436Y-96340000D01*
X177264564Y-98160000D02*
X175810436Y-98160000D01*
%TO.C,R3*%
X118240000Y-79995436D02*
X118240000Y-81449564D01*
X120060000Y-79995436D02*
X120060000Y-81449564D01*
%TO.C,C7*%
X126173752Y-86850000D02*
X124751248Y-86850000D01*
X126173752Y-88670000D02*
X124751248Y-88670000D01*
%TO.C,R6*%
X133877064Y-78850000D02*
X132422936Y-78850000D01*
X133877064Y-80670000D02*
X132422936Y-80670000D01*
%TO.C,R9*%
X139560436Y-81850000D02*
X141014564Y-81850000D01*
X139560436Y-83670000D02*
X141014564Y-83670000D01*
%TO.C,R13*%
X167035436Y-73390000D02*
X168489564Y-73390000D01*
X167035436Y-75210000D02*
X168489564Y-75210000D01*
%TO.C,R10*%
X156472936Y-77620000D02*
X157927064Y-77620000D01*
X156472936Y-79440000D02*
X157927064Y-79440000D01*
%TO.C,C9*%
X139588748Y-84350000D02*
X141011252Y-84350000D01*
X139588748Y-86170000D02*
X141011252Y-86170000D01*
%TO.C,C12*%
X157896252Y-74840000D02*
X156473748Y-74840000D01*
X157896252Y-76660000D02*
X156473748Y-76660000D01*
%TO.C,C3*%
X114236252Y-87840000D02*
X112813748Y-87840000D01*
X114236252Y-89660000D02*
X112813748Y-89660000D01*
%TO.C,R16*%
X182090000Y-88272936D02*
X182090000Y-89727064D01*
X183910000Y-88272936D02*
X183910000Y-89727064D01*
D13*
%TO.C,IC1*%
X166050000Y-81720000D02*
X167250000Y-81720000D01*
X167600000Y-81870000D02*
X168200000Y-81870000D01*
X167600000Y-84770000D02*
X167600000Y-81870000D01*
X168200000Y-81870000D02*
X168200000Y-84770000D01*
X168200000Y-84770000D02*
X167600000Y-84770000D01*
D12*
%TO.C,C4*%
X114236252Y-90340000D02*
X112813748Y-90340000D01*
X114236252Y-92160000D02*
X112813748Y-92160000D01*
%TO.C,C23*%
X168361252Y-65925000D02*
X166938748Y-65925000D01*
X168361252Y-67745000D02*
X166938748Y-67745000D01*
%TO.C,C18*%
X166988748Y-76460000D02*
X168411252Y-76460000D01*
X166988748Y-78280000D02*
X168411252Y-78280000D01*
%TO.C,R14*%
X158914564Y-82925000D02*
X157460436Y-82925000D01*
X158914564Y-84745000D02*
X157460436Y-84745000D01*
%TO.C,C14*%
X162686252Y-70590000D02*
X161263748Y-70590000D01*
X162686252Y-72410000D02*
X161263748Y-72410000D01*
%TO.C,R11*%
X161272936Y-76090000D02*
X162727064Y-76090000D01*
X161272936Y-77910000D02*
X162727064Y-77910000D01*
%TO.C,C13*%
X157876252Y-72090000D02*
X156453748Y-72090000D01*
X157876252Y-73910000D02*
X156453748Y-73910000D01*
%TO.C,C2*%
X109860000Y-83436252D02*
X109860000Y-82013748D01*
X111680000Y-83436252D02*
X111680000Y-82013748D01*
%TD*%
M02*
