%TF.GenerationSoftware,KiCad,Pcbnew,9.0.1*%
%TF.CreationDate,2025-04-07T11:22:38-03:00*%
%TF.ProjectId,Proyecto integrador 1.1,50726f79-6563-4746-9f20-696e74656772,rev?*%
%TF.SameCoordinates,Original*%
%TF.FileFunction,Paste,Top*%
%TF.FilePolarity,Positive*%
%FSLAX46Y46*%
G04 Gerber Fmt 4.6, Leading zero omitted, Abs format (unit mm)*
G04 Created by KiCad (PCBNEW 9.0.1) date 2025-04-07 11:22:38*
%MOMM*%
%LPD*%
G01*
G04 APERTURE LIST*
G04 Aperture macros list*
%AMRoundRect*
0 Rectangle with rounded corners*
0 $1 Rounding radius*
0 $2 $3 $4 $5 $6 $7 $8 $9 X,Y pos of 4 corners*
0 Add a 4 corners polygon primitive as box body*
4,1,4,$2,$3,$4,$5,$6,$7,$8,$9,$2,$3,0*
0 Add four circle primitives for the rounded corners*
1,1,$1+$1,$2,$3*
1,1,$1+$1,$4,$5*
1,1,$1+$1,$6,$7*
1,1,$1+$1,$8,$9*
0 Add four rect primitives between the rounded corners*
20,1,$1+$1,$2,$3,$4,$5,0*
20,1,$1+$1,$4,$5,$6,$7,0*
20,1,$1+$1,$6,$7,$8,$9,0*
20,1,$1+$1,$8,$9,$2,$3,0*%
G04 Aperture macros list end*
%ADD10RoundRect,0.250000X0.312500X0.625000X-0.312500X0.625000X-0.312500X-0.625000X0.312500X-0.625000X0*%
%ADD11RoundRect,0.250000X0.625000X-0.312500X0.625000X0.312500X-0.625000X0.312500X-0.625000X-0.312500X0*%
%ADD12RoundRect,0.250000X-0.650000X0.325000X-0.650000X-0.325000X0.650000X-0.325000X0.650000X0.325000X0*%
%ADD13RoundRect,0.250000X-0.312500X-0.625000X0.312500X-0.625000X0.312500X0.625000X-0.312500X0.625000X0*%
%ADD14RoundRect,0.250000X-0.625000X0.312500X-0.625000X-0.312500X0.625000X-0.312500X0.625000X0.312500X0*%
%ADD15RoundRect,0.250000X0.325000X0.650000X-0.325000X0.650000X-0.325000X-0.650000X0.325000X-0.650000X0*%
%ADD16RoundRect,0.112500X0.112500X0.237500X-0.112500X0.237500X-0.112500X-0.237500X0.112500X-0.237500X0*%
%ADD17RoundRect,0.250000X-0.325000X-0.650000X0.325000X-0.650000X0.325000X0.650000X-0.325000X0.650000X0*%
%ADD18RoundRect,0.250000X0.650000X-0.325000X0.650000X0.325000X-0.650000X0.325000X-0.650000X-0.325000X0*%
%ADD19R,1.200000X0.600000*%
G04 APERTURE END LIST*
D10*
%TO.C,R4*%
X126987500Y-79760000D03*
X124062500Y-79760000D03*
%TD*%
D11*
%TO.C,R18*%
X178075000Y-95137500D03*
X178075000Y-92212500D03*
%TD*%
D10*
%TO.C,R7*%
X134525000Y-82760000D03*
X131600000Y-82760000D03*
%TD*%
D12*
%TO.C,C15*%
X162225000Y-83385000D03*
X162225000Y-86335000D03*
%TD*%
D13*
%TO.C,R19*%
X161187500Y-91335000D03*
X164112500Y-91335000D03*
%TD*%
D14*
%TO.C,R1*%
X113270000Y-81200000D03*
X113270000Y-84125000D03*
%TD*%
D13*
%TO.C,R12*%
X160575000Y-74250000D03*
X163500000Y-74250000D03*
%TD*%
D15*
%TO.C,C6*%
X126937500Y-85260000D03*
X123987500Y-85260000D03*
%TD*%
D11*
%TO.C,R20*%
X165650000Y-101335000D03*
X165650000Y-98410000D03*
%TD*%
D16*
%TO.C,D1*%
X163300000Y-98335000D03*
X162000000Y-98335000D03*
X162650000Y-100335000D03*
%TD*%
D12*
%TO.C,C5*%
X132750000Y-69775000D03*
X132750000Y-72725000D03*
%TD*%
D17*
%TO.C,C10*%
X138825000Y-87760000D03*
X141775000Y-87760000D03*
%TD*%
D13*
%TO.C,R8*%
X138650000Y-79760000D03*
X141575000Y-79760000D03*
%TD*%
D11*
%TO.C,R21*%
X158650000Y-100260000D03*
X158650000Y-97335000D03*
%TD*%
D17*
%TO.C,C17*%
X166275000Y-79870000D03*
X169225000Y-79870000D03*
%TD*%
D14*
%TO.C,R22*%
X154400000Y-98797500D03*
X154400000Y-101722500D03*
%TD*%
D17*
%TO.C,C19*%
X161175000Y-94835000D03*
X164125000Y-94835000D03*
%TD*%
D15*
%TO.C,C8*%
X134600000Y-85260000D03*
X131650000Y-85260000D03*
%TD*%
D18*
%TO.C,C1*%
X110690000Y-97950000D03*
X110690000Y-95000000D03*
%TD*%
D10*
%TO.C,R2*%
X115025000Y-86250000D03*
X112100000Y-86250000D03*
%TD*%
%TO.C,R5*%
X126862500Y-82760000D03*
X123937500Y-82760000D03*
%TD*%
%TO.C,R17*%
X178000000Y-97250000D03*
X175075000Y-97250000D03*
%TD*%
D14*
%TO.C,R3*%
X119150000Y-79260000D03*
X119150000Y-82185000D03*
%TD*%
D15*
%TO.C,C7*%
X126937500Y-87760000D03*
X123987500Y-87760000D03*
%TD*%
D10*
%TO.C,R6*%
X134612500Y-79760000D03*
X131687500Y-79760000D03*
%TD*%
D13*
%TO.C,R9*%
X138825000Y-82760000D03*
X141750000Y-82760000D03*
%TD*%
%TO.C,R13*%
X166300000Y-74300000D03*
X169225000Y-74300000D03*
%TD*%
%TO.C,R10*%
X155737500Y-78530000D03*
X158662500Y-78530000D03*
%TD*%
D17*
%TO.C,C9*%
X138825000Y-85260000D03*
X141775000Y-85260000D03*
%TD*%
D15*
%TO.C,C12*%
X158660000Y-75750000D03*
X155710000Y-75750000D03*
%TD*%
%TO.C,C3*%
X115000000Y-88750000D03*
X112050000Y-88750000D03*
%TD*%
D14*
%TO.C,R16*%
X183000000Y-87537500D03*
X183000000Y-90462500D03*
%TD*%
D19*
%TO.C,IC1*%
X166650000Y-82370000D03*
X166650000Y-83320000D03*
X166650000Y-84270000D03*
X169150000Y-84270000D03*
X169150000Y-83320000D03*
X169150000Y-82370000D03*
%TD*%
D15*
%TO.C,C4*%
X115000000Y-91250000D03*
X112050000Y-91250000D03*
%TD*%
%TO.C,C23*%
X169125000Y-66835000D03*
X166175000Y-66835000D03*
%TD*%
D17*
%TO.C,C18*%
X166225000Y-77370000D03*
X169175000Y-77370000D03*
%TD*%
D10*
%TO.C,R14*%
X159650000Y-83835000D03*
X156725000Y-83835000D03*
%TD*%
D15*
%TO.C,C14*%
X163450000Y-71500000D03*
X160500000Y-71500000D03*
%TD*%
D13*
%TO.C,R11*%
X160537500Y-77000000D03*
X163462500Y-77000000D03*
%TD*%
D15*
%TO.C,C13*%
X158640000Y-73000000D03*
X155690000Y-73000000D03*
%TD*%
D18*
%TO.C,C2*%
X110770000Y-84200000D03*
X110770000Y-81250000D03*
%TD*%
M02*
