%TF.GenerationSoftware,KiCad,Pcbnew,9.0.1*%
%TF.CreationDate,2025-04-07T11:22:38-03:00*%
%TF.ProjectId,Proyecto integrador 1.1,50726f79-6563-4746-9f20-696e74656772,rev?*%
%TF.SameCoordinates,Original*%
%TF.FileFunction,Copper,L2,Bot*%
%TF.FilePolarity,Positive*%
%FSLAX46Y46*%
G04 Gerber Fmt 4.6, Leading zero omitted, Abs format (unit mm)*
G04 Created by KiCad (PCBNEW 9.0.1) date 2025-04-07 11:22:38*
%MOMM*%
%LPD*%
G01*
G04 APERTURE LIST*
G04 Aperture macros list*
%AMRoundRect*
0 Rectangle with rounded corners*
0 $1 Rounding radius*
0 $2 $3 $4 $5 $6 $7 $8 $9 X,Y pos of 4 corners*
0 Add a 4 corners polygon primitive as box body*
4,1,4,$2,$3,$4,$5,$6,$7,$8,$9,$2,$3,0*
0 Add four circle primitives for the rounded corners*
1,1,$1+$1,$2,$3*
1,1,$1+$1,$4,$5*
1,1,$1+$1,$6,$7*
1,1,$1+$1,$8,$9*
0 Add four rect primitives between the rounded corners*
20,1,$1+$1,$2,$3,$4,$5,0*
20,1,$1+$1,$4,$5,$6,$7,0*
20,1,$1+$1,$6,$7,$8,$9,0*
20,1,$1+$1,$8,$9,$2,$3,0*%
G04 Aperture macros list end*
%TA.AperFunction,ComponentPad*%
%ADD10R,1.700000X1.700000*%
%TD*%
%TA.AperFunction,ComponentPad*%
%ADD11O,1.700000X1.700000*%
%TD*%
%TA.AperFunction,SMDPad,CuDef*%
%ADD12RoundRect,0.250000X-0.650000X0.325000X-0.650000X-0.325000X0.650000X-0.325000X0.650000X0.325000X0*%
%TD*%
%TA.AperFunction,ComponentPad*%
%ADD13O,1.600000X2.500000*%
%TD*%
%TA.AperFunction,ComponentPad*%
%ADD14O,3.500000X7.000000*%
%TD*%
%TA.AperFunction,ComponentPad*%
%ADD15R,1.800000X1.800000*%
%TD*%
%TA.AperFunction,ComponentPad*%
%ADD16C,1.800000*%
%TD*%
%TA.AperFunction,ComponentPad*%
%ADD17R,1.950000X1.950000*%
%TD*%
%TA.AperFunction,ComponentPad*%
%ADD18C,1.950000*%
%TD*%
%TA.AperFunction,ComponentPad*%
%ADD19RoundRect,0.250000X-0.550000X0.550000X-0.550000X-0.550000X0.550000X-0.550000X0.550000X0.550000X0*%
%TD*%
%TA.AperFunction,ComponentPad*%
%ADD20C,1.600000*%
%TD*%
%TA.AperFunction,SMDPad,CuDef*%
%ADD21RoundRect,0.250000X0.325000X0.650000X-0.325000X0.650000X-0.325000X-0.650000X0.325000X-0.650000X0*%
%TD*%
%TA.AperFunction,SMDPad,CuDef*%
%ADD22RoundRect,0.150000X-0.512500X-0.150000X0.512500X-0.150000X0.512500X0.150000X-0.512500X0.150000X0*%
%TD*%
%TA.AperFunction,ComponentPad*%
%ADD23R,2.775000X2.775000*%
%TD*%
%TA.AperFunction,ComponentPad*%
%ADD24C,2.775000*%
%TD*%
%TA.AperFunction,SMDPad,CuDef*%
%ADD25RoundRect,0.250000X0.312500X0.625000X-0.312500X0.625000X-0.312500X-0.625000X0.312500X-0.625000X0*%
%TD*%
%TA.AperFunction,ComponentPad*%
%ADD26R,2.000000X1.200000*%
%TD*%
%TA.AperFunction,ComponentPad*%
%ADD27O,2.000000X1.200000*%
%TD*%
%TA.AperFunction,ViaPad*%
%ADD28C,1.600000*%
%TD*%
%TA.AperFunction,ViaPad*%
%ADD29C,1.200000*%
%TD*%
%TA.AperFunction,Conductor*%
%ADD30C,0.500000*%
%TD*%
%TA.AperFunction,Conductor*%
%ADD31C,0.300000*%
%TD*%
%TA.AperFunction,Conductor*%
%ADD32C,0.900000*%
%TD*%
G04 APERTURE END LIST*
D10*
%TO.P,J2,1,Pin_1*%
%TO.N,Net-(J2-Pin_1)*%
X149100000Y-87475000D03*
D11*
%TO.P,J2,2,Pin_2*%
%TO.N,/Complementary circuits/SIGNAL_INPUT*%
X149100000Y-84935000D03*
%TO.P,J2,3,Pin_3*%
%TO.N,Net-(J2-Pin_3)*%
X149100000Y-82395000D03*
%TD*%
D12*
%TO.P,C21,1*%
%TO.N,Net-(U3-C1+)*%
X168150000Y-69335000D03*
%TO.P,C21,2*%
%TO.N,Net-(U3-C1-)*%
X168150000Y-72285000D03*
%TD*%
D13*
%TO.P,J1,1,In*%
%TO.N,Net-(J1-In)*%
X120500000Y-102100000D03*
D14*
%TO.P,J1,2,Ext*%
%TO.N,GND*%
X115420000Y-107180000D03*
D13*
X117960000Y-102100000D03*
D14*
X125580000Y-107180000D03*
%TD*%
D15*
%TO.P,C11,1,1*%
%TO.N,GND*%
X149150000Y-72335000D03*
D16*
%TO.P,C11,2,2*%
%TO.N,/Vatten*%
X149150000Y-77335000D03*
%TD*%
D17*
%TO.P,S3,1*%
%TO.N,Net-(R3-Pad1)*%
X123650000Y-69260000D03*
D18*
%TO.P,S3,2*%
%TO.N,Net-(R4-Pad2)*%
X126650000Y-69260000D03*
%TO.P,S3,3*%
%TO.N,Net-(S2-COM2)*%
X129650000Y-69260000D03*
%TO.P,S3,4*%
%TO.N,Net-(R6-Pad2)*%
X135650000Y-69260000D03*
%TO.P,S3,5*%
%TO.N,Net-(R8-Pad2)*%
X138650000Y-69260000D03*
%TO.P,S3,6*%
%TO.N,Net-(R3-Pad1)*%
X123650000Y-73260000D03*
%TO.P,S3,7*%
%TO.N,Net-(C6-Pad1)*%
X126650000Y-73260000D03*
%TO.P,S3,8*%
%TO.N,/Vatten*%
X129650000Y-73260000D03*
%TO.P,S3,9*%
%TO.N,Net-(C8-Pad1)*%
X135650000Y-73260000D03*
%TO.P,S3,10*%
%TO.N,Net-(C10-Pad1)*%
X138650000Y-73260000D03*
%TO.P,S3,SH1*%
%TO.N,N/C*%
X119150000Y-75760000D03*
%TO.P,S3,SH2*%
X119150000Y-66760000D03*
%TO.P,S3,SH3*%
X143150000Y-75760000D03*
%TO.P,S3,SH4*%
X143150000Y-66760000D03*
%TD*%
D19*
%TO.P,U1,1*%
%TO.N,/Complementary circuits/SIGNAL_INPUT*%
X156030000Y-81215000D03*
D20*
%TO.P,U1,2,-*%
%TO.N,Net-(U1A--)*%
X158570000Y-81215000D03*
%TO.P,U1,3,+*%
%TO.N,/Vatten*%
X161110000Y-81215000D03*
%TO.P,U1,4,V-*%
%TO.N,VSSA*%
X163650000Y-81215000D03*
%TO.P,U1,5,+*%
%TO.N,/Complementary circuits/SIGNAL_INPUT*%
X163650000Y-88835000D03*
%TO.P,U1,6,-*%
%TO.N,Net-(U1B--)*%
X161110000Y-88835000D03*
%TO.P,U1,7*%
%TO.N,Net-(R21-Pad2)*%
X158570000Y-88835000D03*
%TO.P,U1,8,V+*%
%TO.N,VDDA*%
X156030000Y-88835000D03*
%TD*%
D12*
%TO.P,C20,1*%
%TO.N,VDDA*%
X160650000Y-66835000D03*
%TO.P,C20,2*%
%TO.N,GND*%
X160650000Y-69785000D03*
%TD*%
%TO.P,C16,1*%
%TO.N,/Complementary circuits/INT_ADC*%
X166650000Y-103385000D03*
%TO.P,C16,2*%
%TO.N,GND*%
X166650000Y-106335000D03*
%TD*%
D21*
%TO.P,C22,1*%
%TO.N,VSSA*%
X163650000Y-72000000D03*
%TO.P,C22,2*%
%TO.N,GND*%
X160700000Y-72000000D03*
%TD*%
D22*
%TO.P,U3,1,VOUT*%
%TO.N,VSSA*%
X163650000Y-69785000D03*
%TO.P,U3,2,GND*%
%TO.N,GND*%
X163650000Y-68835000D03*
%TO.P,U3,3,VIN*%
%TO.N,VDDA*%
X163650000Y-67885000D03*
%TO.P,U3,4,EN*%
X165925000Y-67885000D03*
%TO.P,U3,5,C1+*%
%TO.N,Net-(U3-C1+)*%
X165925000Y-68835000D03*
%TO.P,U3,6,C1-*%
%TO.N,Net-(U3-C1-)*%
X165925000Y-69785000D03*
%TD*%
D23*
%TO.P,S2,1,NC1*%
%TO.N,Net-(S2-NC1)*%
X96740000Y-85090000D03*
D24*
%TO.P,S2,2,COM1*%
%TO.N,Net-(S1-COM2)*%
X101440000Y-85090000D03*
%TO.P,S2,3,NO1*%
%TO.N,Net-(S2-NO1)*%
X106140000Y-85090000D03*
%TO.P,S2,4,NC2*%
%TO.N,Net-(S2-NC1)*%
X96740000Y-80260000D03*
%TO.P,S2,5,COM2*%
%TO.N,Net-(S2-COM2)*%
X101440000Y-80260000D03*
%TO.P,S2,6,NO2*%
%TO.N,Net-(S2-NO2)*%
X106140000Y-80260000D03*
%TD*%
D25*
%TO.P,R15,1*%
%TO.N,/Complementary circuits/INT_ADC*%
X164150000Y-103335000D03*
%TO.P,R15,2*%
%TO.N,Net-(J2-Pin_1)*%
X161225000Y-103335000D03*
%TD*%
D26*
%TO.P,U4,1,3V3*%
%TO.N,+3.3V*%
X171650000Y-112730000D03*
D27*
%TO.P,U4,2,CHIP_PU*%
%TO.N,unconnected-(U4-CHIP_PU-Pad2)*%
X171650000Y-110190000D03*
%TO.P,U4,3,SENSOR_VP/GPIO36/ADC1_CH0*%
%TO.N,unconnected-(U4-SENSOR_VP{slash}GPIO36{slash}ADC1_CH0-Pad3)*%
X171650000Y-107650000D03*
%TO.P,U4,4,SENSOR_VN/GPIO39/ADC1_CH3*%
%TO.N,unconnected-(U4-SENSOR_VN{slash}GPIO39{slash}ADC1_CH3-Pad4)*%
X171650000Y-105110000D03*
%TO.P,U4,5,VDET_1/GPIO34/ADC1_CH6*%
%TO.N,/Complementary circuits/INT_ADC*%
X171650000Y-102570000D03*
%TO.P,U4,6,VDET_2/GPIO35/ADC1_CH7*%
%TO.N,unconnected-(U4-VDET_2{slash}GPIO35{slash}ADC1_CH7-Pad6)*%
X171650000Y-100030000D03*
%TO.P,U4,7,32K_XP/GPIO32/ADC1_CH4*%
%TO.N,/Complementary circuits/SQUARE_ATTEN*%
X171650000Y-97490000D03*
%TO.P,U4,8,32K_XN/GPIO33/ADC1_CH5*%
%TO.N,/Complementary circuits/TRANSIENT*%
X171650000Y-94950000D03*
%TO.P,U4,9,DAC_1/ADC2_CH8/GPIO25*%
%TO.N,/Complementary circuits/LED_GPIO*%
X171650000Y-92410000D03*
%TO.P,U4,10,DAC_2/ADC2_CH9/GPIO26*%
%TO.N,unconnected-(U4-DAC_2{slash}ADC2_CH9{slash}GPIO26-Pad10)*%
X171650000Y-89870000D03*
%TO.P,U4,11,ADC2_CH7/GPIO27*%
%TO.N,/Complementary circuits/TRIGGER_PWM*%
X171650000Y-87330000D03*
%TO.P,U4,12,MTMS/GPIO14/ADC2_CH6*%
%TO.N,/Complementary circuits/CLK_SPI*%
X171650000Y-84790000D03*
%TO.P,U4,13,MTDI/GPIO12/ADC2_CH5*%
%TO.N,/Complementary circuits/MISO_SPI*%
X171650000Y-82250000D03*
%TO.P,U4,14,GND*%
%TO.N,GND*%
X171650000Y-79710000D03*
%TO.P,U4,15,MTCK/GPIO13/ADC2_CH4*%
%TO.N,/Complementary circuits/CS_SPI*%
X171650000Y-77170000D03*
%TO.P,U4,16,SD_DATA2/GPIO9*%
%TO.N,unconnected-(U4-SD_DATA2{slash}GPIO9-Pad16)*%
X171650000Y-74630000D03*
%TO.P,U4,17,SD_DATA3/GPIO10*%
%TO.N,unconnected-(U4-SD_DATA3{slash}GPIO10-Pad17)*%
X171650000Y-72090000D03*
%TO.P,U4,18,CMD*%
%TO.N,unconnected-(U4-CMD-Pad18)*%
X171650000Y-69550000D03*
%TO.P,U4,19,5V*%
%TO.N,VDDA*%
X171650000Y-67010000D03*
%TO.P,U4,20,SD_CLK/GPIO6*%
%TO.N,unconnected-(U4-SD_CLK{slash}GPIO6-Pad20)*%
X194646320Y-67012720D03*
%TO.P,U4,21,SD_DATA0/GPIO7*%
%TO.N,unconnected-(U4-SD_DATA0{slash}GPIO7-Pad21)*%
X194646320Y-69552720D03*
%TO.P,U4,22,SD_DATA1/GPIO8*%
%TO.N,unconnected-(U4-SD_DATA1{slash}GPIO8-Pad22)*%
X194650000Y-72090000D03*
%TO.P,U4,23,MTDO/GPIO15/ADC2_CH3*%
%TO.N,/ESP32/CS_MCPWM_SYNC*%
X194650000Y-74630000D03*
%TO.P,U4,24,ADC2_CH2/GPIO2*%
X194650000Y-77170000D03*
%TO.P,U4,25,GPIO0/BOOT/ADC2_CH1*%
%TO.N,unconnected-(U4-GPIO0{slash}BOOT{slash}ADC2_CH1-Pad25)*%
X194650000Y-79710000D03*
%TO.P,U4,26,ADC2_CH0/GPIO4*%
%TO.N,unconnected-(U4-ADC2_CH0{slash}GPIO4-Pad26)*%
X194650000Y-82250000D03*
%TO.P,U4,27,GPIO16*%
%TO.N,unconnected-(U4-GPIO16-Pad27)*%
X194650000Y-84790000D03*
%TO.P,U4,28,GPIO17*%
%TO.N,unconnected-(U4-GPIO17-Pad28)*%
X194650000Y-87330000D03*
%TO.P,U4,29,GPIO5*%
%TO.N,unconnected-(U4-GPIO5-Pad29)*%
X194650000Y-89870000D03*
%TO.P,U4,30,GPIO18*%
%TO.N,unconnected-(U4-GPIO18-Pad30)*%
X194650000Y-92410000D03*
%TO.P,U4,31,GPIO19*%
%TO.N,unconnected-(U4-GPIO19-Pad31)*%
X194650000Y-94950000D03*
%TO.P,U4,32,GND*%
%TO.N,GND*%
X194650000Y-97490000D03*
%TO.P,U4,33,GPIO21*%
%TO.N,unconnected-(U4-GPIO21-Pad33)*%
X194650000Y-100030000D03*
%TO.P,U4,34,U0RXD/GPIO3*%
%TO.N,unconnected-(U4-U0RXD{slash}GPIO3-Pad34)*%
X194650000Y-102570000D03*
%TO.P,U4,35,U0TXD/GPIO1*%
%TO.N,unconnected-(U4-U0TXD{slash}GPIO1-Pad35)*%
X194650000Y-105110000D03*
%TO.P,U4,36,GPIO22*%
%TO.N,unconnected-(U4-GPIO22-Pad36)*%
X194650000Y-107650000D03*
%TO.P,U4,37,GPIO23*%
%TO.N,unconnected-(U4-GPIO23-Pad37)*%
X194650000Y-110190000D03*
%TO.P,U4,38,GND*%
%TO.N,GND*%
X194650000Y-112730000D03*
%TD*%
D15*
%TO.P,D2,1,K*%
%TO.N,Net-(D2-K)*%
X154400000Y-95072500D03*
D16*
%TO.P,D2,2,A*%
%TO.N,/Complementary circuits/LED_GPIO*%
X154400000Y-92532500D03*
%TD*%
D23*
%TO.P,S1,1,NC1*%
%TO.N,Net-(S1-NC1)*%
X96740000Y-99480000D03*
D24*
%TO.P,S1,2,COM1*%
%TO.N,Net-(J1-In)*%
X101440000Y-99480000D03*
%TO.P,S1,3,NO1*%
%TO.N,Net-(S1-NO1)*%
X106140000Y-99480000D03*
%TO.P,S1,4,NC2*%
%TO.N,Net-(S1-NC1)*%
X96740000Y-94650000D03*
%TO.P,S1,5,COM2*%
%TO.N,Net-(S1-COM2)*%
X101440000Y-94650000D03*
%TO.P,S1,6,NO2*%
%TO.N,Net-(S1-NO2)*%
X106140000Y-94650000D03*
%TD*%
D28*
%TO.N,GND*%
X158250000Y-69800000D03*
X200000000Y-74500000D03*
X169000000Y-106300000D03*
%TO.N,VDDA*%
X200000000Y-82250000D03*
D29*
%TO.N,VSSA*%
X175700000Y-88600000D03*
D28*
X200000000Y-105500000D03*
D29*
X173250000Y-88600000D03*
D28*
%TO.N,/Square_signal*%
X200000000Y-89900000D03*
D29*
X180800000Y-96200000D03*
%TD*%
D30*
%TO.N,GND*%
X160650000Y-69785000D02*
X158265000Y-69785000D01*
X166650000Y-106335000D02*
X168965000Y-106335000D01*
X160700000Y-69835000D02*
X160650000Y-69785000D01*
X160650000Y-69785000D02*
X160650000Y-71950000D01*
X160650000Y-71950000D02*
X160700000Y-72000000D01*
X168965000Y-106335000D02*
X169000000Y-106300000D01*
X168565000Y-106335000D02*
X168600000Y-106300000D01*
X161600000Y-68835000D02*
X163650000Y-68835000D01*
X158715000Y-69785000D02*
X158700000Y-69800000D01*
X160650000Y-69785000D02*
X161600000Y-68835000D01*
X158265000Y-69785000D02*
X158250000Y-69800000D01*
D31*
%TO.N,/Vatten*%
X149150000Y-77335000D02*
X157230000Y-77335000D01*
X129650000Y-73260000D02*
X133725000Y-77335000D01*
X157230000Y-77335000D02*
X161110000Y-81215000D01*
X133725000Y-77335000D02*
X149150000Y-77335000D01*
%TO.N,/Complementary circuits/SIGNAL_INPUT*%
X152820000Y-81215000D02*
X156030000Y-81215000D01*
X156030000Y-81220000D02*
X156030000Y-81215000D01*
X149100000Y-84935000D02*
X152820000Y-81215000D01*
%TO.N,/Complementary circuits/INT_ADC*%
X171650000Y-102570000D02*
X167465000Y-102570000D01*
X167465000Y-102570000D02*
X166650000Y-103385000D01*
X164150000Y-103335000D02*
X166600000Y-103335000D01*
X166600000Y-103335000D02*
X166650000Y-103385000D01*
D30*
%TO.N,VDDA*%
X156030000Y-88835000D02*
X158355000Y-91160000D01*
D32*
X179010000Y-67010000D02*
X193000000Y-81000000D01*
X197500000Y-82250000D02*
X200000000Y-82250000D01*
D30*
X174430000Y-90040000D02*
X174430000Y-69790000D01*
X174430000Y-69790000D02*
X171650000Y-67010000D01*
X171650000Y-67010000D02*
X166800000Y-67010000D01*
X162600000Y-66835000D02*
X163650000Y-67885000D01*
D32*
X193000000Y-81000000D02*
X196250000Y-81000000D01*
D30*
X160650000Y-66835000D02*
X162600000Y-66835000D01*
X158355000Y-91160000D02*
X173310000Y-91160000D01*
D31*
X171475000Y-66835000D02*
X171650000Y-67010000D01*
D32*
X196250000Y-81000000D02*
X197500000Y-82250000D01*
X171650000Y-67010000D02*
X179010000Y-67010000D01*
D30*
X173310000Y-91160000D02*
X174430000Y-90040000D01*
X165925000Y-67885000D02*
X163650000Y-67885000D01*
X166800000Y-67010000D02*
X165925000Y-67885000D01*
D31*
%TO.N,Net-(U3-C1+)*%
X165925000Y-68835000D02*
X167650000Y-68835000D01*
X167650000Y-68835000D02*
X168150000Y-69335000D01*
%TO.N,Net-(U3-C1-)*%
X165925000Y-69785000D02*
X168150000Y-72010000D01*
X168150000Y-72010000D02*
X168150000Y-72285000D01*
D30*
%TO.N,VSSA*%
X168450000Y-88600000D02*
X173250000Y-88600000D01*
X197450000Y-103850000D02*
X198350000Y-103850000D01*
X183800000Y-103850000D02*
X197450000Y-103850000D01*
X175700000Y-88600000D02*
X178000000Y-90900000D01*
X167450000Y-87600000D02*
X168450000Y-88600000D01*
X198350000Y-103850000D02*
X200000000Y-105500000D01*
X163650000Y-83800000D02*
X167450000Y-87600000D01*
X178000000Y-97400000D02*
X178000000Y-98050000D01*
X163650000Y-72000000D02*
X163650000Y-81215000D01*
X163650000Y-81215000D02*
X163650000Y-83800000D01*
X178000000Y-90900000D02*
X178000000Y-97400000D01*
X178000000Y-98050000D02*
X182200000Y-102250000D01*
X182200000Y-102250000D02*
X183800000Y-103850000D01*
X163650000Y-69785000D02*
X163650000Y-72000000D01*
D31*
%TO.N,/Square_signal*%
X198800000Y-91100000D02*
X200000000Y-89900000D01*
X195000000Y-91100000D02*
X198800000Y-91100000D01*
X180800000Y-96200000D02*
X185900000Y-91100000D01*
X185900000Y-91100000D02*
X195000000Y-91100000D01*
%TO.N,/Complementary circuits/LED_GPIO*%
X154522500Y-92410000D02*
X154400000Y-92532500D01*
D30*
X154400000Y-92532500D02*
X171527500Y-92532500D01*
D31*
X171527500Y-92532500D02*
X171650000Y-92410000D01*
%TO.N,Net-(J2-Pin_1)*%
X149100000Y-87475000D02*
X149100000Y-97550000D01*
X149100000Y-97550000D02*
X154900000Y-103350000D01*
X154915000Y-103335000D02*
X161225000Y-103335000D01*
X154900000Y-103350000D02*
X154915000Y-103335000D01*
%TD*%
M02*
